<svg width="50" height="50" viewBox="0 0 50 50" fill="none" xmlns="http://www.w3.org/2000/svg">
<path d="M14.75 17.8847C14.75 23.7505 19.521 28.5194 25.3889 28.5194C31.2568 28.5194 36.0277 23.7505 36.0277 17.8847C36.0277 12.0189 31.2568 7.25 25.3889 7.25C19.521 7.25 14.75 12.0189 14.75 17.8847ZM16.5888 17.8847C16.5888 13.0446 20.5466 9.08823 25.3889 9.08823C30.2311 9.08823 34.189 13.0446 34.189 17.8847C34.189 22.7247 30.2311 26.6812 25.3889 26.6812C20.5466 26.6812 16.5888 22.7247 16.5888 17.8847Z" fill="#0139A4" stroke="#0139A4" stroke-width="0.5"/>
<path d="M29.1802 42.9041L29.1956 42.9186L29.2131 42.9303C29.4064 43.0591 29.6145 43.1329 29.8337 43.1329L29.8423 43.1329C29.8888 43.1329 29.9608 43.133 30.022 43.1228C30.0534 43.1176 30.1101 43.1057 30.1647 43.0706C30.175 43.0639 30.1854 43.0563 30.1956 43.0477C30.5484 42.9254 30.7263 42.5606 30.7263 42.2405V26.5564C30.7263 26.3145 30.6078 26.0935 30.4523 25.938C30.2967 25.7825 30.0757 25.6641 29.8337 25.6641C29.3881 25.6641 28.9411 26.0303 28.9411 26.5564V40.1135L26.202 37.5612L26.1951 37.5547L26.1877 37.5488C25.8286 37.2617 25.3241 37.2617 24.9651 37.5488L24.965 37.5487L24.9592 37.5536L21.7833 40.2544V26.5564C21.7833 26.3145 21.6648 26.0935 21.5092 25.938C21.3536 25.7825 21.1326 25.6641 20.8906 25.6641C20.445 25.6641 19.998 26.0303 19.998 26.5564V42.2941C19.998 42.6695 20.2246 42.9633 20.5111 43.1065C20.8347 43.2682 21.2041 43.1745 21.469 42.9758L21.4758 42.9708L21.4821 42.9653L25.5419 39.4722L29.1802 42.9041Z" fill="#0139A4" stroke="#0139A4" stroke-width="0.5"/>
<mask id="path-3-outside-1_1344_4545" maskUnits="userSpaceOnUse" x="18.0273" y="10.2471" width="15" height="14" fill="black">
<rect fill="white" x="18.0273" y="10.2471" width="15" height="14"/>
<path d="M21.8551 23.4518C21.6945 23.4518 21.5873 23.3983 21.4802 23.3447C21.266 23.1841 21.1589 22.9165 21.2125 22.7024L21.8016 19.1159L19.2311 16.6C19.0705 16.4394 18.9633 16.1718 19.0705 15.9041C19.124 15.6365 19.3382 15.4759 19.606 15.4224L23.1939 14.8871L24.8004 11.6218C24.9075 11.4076 25.1217 11.2471 25.3895 11.2471C25.6572 11.2471 25.8714 11.4076 25.9785 11.6218L27.585 14.8871L31.1729 15.4224C31.4407 15.4759 31.6549 15.6365 31.7085 15.9041C31.762 16.1718 31.7084 16.3859 31.5478 16.6L28.9773 19.1159L29.5664 22.7024C29.62 22.97 29.5129 23.1841 29.2987 23.3447C29.0845 23.5053 28.8167 23.5053 28.6025 23.3982L25.3895 21.7388L22.1764 23.3982C22.0693 23.3982 21.9622 23.4518 21.8551 23.4518ZM21.1589 16.5465L23.0332 18.3665C23.1939 18.5271 23.2474 18.7412 23.2474 18.9553L22.819 21.5247L25.1217 20.2935C25.3359 20.1865 25.5501 20.1865 25.7643 20.2935L28.067 21.5247L27.6386 18.9553C27.585 18.7412 27.6921 18.5271 27.8528 18.3665L29.727 16.5465L27.1566 16.1718C26.9424 16.1182 26.7282 16.0112 26.6747 15.7971L25.4965 13.4418L24.3184 15.7971C24.2113 16.0112 24.0507 16.1182 23.8365 16.1718L21.1589 16.5465Z"/>
</mask>
<path d="M21.8551 23.4518C21.6945 23.4518 21.5873 23.3983 21.4802 23.3447C21.266 23.1841 21.1589 22.9165 21.2125 22.7024L21.8016 19.1159L19.2311 16.6C19.0705 16.4394 18.9633 16.1718 19.0705 15.9041C19.124 15.6365 19.3382 15.4759 19.606 15.4224L23.1939 14.8871L24.8004 11.6218C24.9075 11.4076 25.1217 11.2471 25.3895 11.2471C25.6572 11.2471 25.8714 11.4076 25.9785 11.6218L27.585 14.8871L31.1729 15.4224C31.4407 15.4759 31.6549 15.6365 31.7085 15.9041C31.762 16.1718 31.7084 16.3859 31.5478 16.6L28.9773 19.1159L29.5664 22.7024C29.62 22.97 29.5129 23.1841 29.2987 23.3447C29.0845 23.5053 28.8167 23.5053 28.6025 23.3982L25.3895 21.7388L22.1764 23.3982C22.0693 23.3982 21.9622 23.4518 21.8551 23.4518ZM21.1589 16.5465L23.0332 18.3665C23.1939 18.5271 23.2474 18.7412 23.2474 18.9553L22.819 21.5247L25.1217 20.2935C25.3359 20.1865 25.5501 20.1865 25.7643 20.2935L28.067 21.5247L27.6386 18.9553C27.585 18.7412 27.6921 18.5271 27.8528 18.3665L29.727 16.5465L27.1566 16.1718C26.9424 16.1182 26.7282 16.0112 26.6747 15.7971L25.4965 13.4418L24.3184 15.7971C24.2113 16.0112 24.0507 16.1182 23.8365 16.1718L21.1589 16.5465Z" fill="#0878C9"/>
<path d="M21.4802 23.3447L21.1803 23.7448L21.2164 23.7718L21.2567 23.792L21.4802 23.3447ZM21.2125 22.7024L21.6975 22.8237L21.7025 22.8037L21.7059 22.7834L21.2125 22.7024ZM21.8016 19.1159L22.295 19.1969L22.3371 18.9404L22.1513 18.7586L21.8016 19.1159ZM19.2311 16.6L18.8776 16.9537L18.8814 16.9574L19.2311 16.6ZM19.0705 15.9041L19.5347 16.0899L19.5517 16.0472L19.5607 16.0022L19.0705 15.9041ZM19.606 15.4224L19.5322 14.9278L19.52 14.9297L19.5079 14.9321L19.606 15.4224ZM23.1939 14.8871L23.2677 15.3816L23.5268 15.3429L23.6425 15.1078L23.1939 14.8871ZM24.8004 11.6218L24.3532 11.3981L24.3518 11.401L24.8004 11.6218ZM25.9785 11.6218L26.4271 11.401L26.4257 11.3981L25.9785 11.6218ZM27.585 14.8871L27.1364 15.1078L27.2521 15.3429L27.5112 15.3816L27.585 14.8871ZM31.1729 15.4224L31.271 14.9321L31.2589 14.9297L31.2467 14.9278L31.1729 15.4224ZM31.5478 16.6L31.8975 16.9574L31.9248 16.9306L31.9477 16.9001L31.5478 16.6ZM28.9773 19.1159L28.6276 18.7586L28.4418 18.9404L28.4839 19.1969L28.9773 19.1159ZM29.5664 22.7024L29.073 22.7834L29.0744 22.792L29.0761 22.8005L29.5664 22.7024ZM28.6025 23.3982L28.373 23.8425L28.379 23.8455L28.6025 23.3982ZM25.3895 21.7388L25.6189 21.2946L25.3895 21.1761L25.16 21.2946L25.3895 21.7388ZM22.1764 23.3982V23.8982H22.2979L22.4059 23.8425L22.1764 23.3982ZM21.1589 16.5465L21.0896 16.0513L20.0772 16.193L20.8106 16.9052L21.1589 16.5465ZM23.0332 18.3665L23.3867 18.0128L23.3815 18.0078L23.0332 18.3665ZM23.2474 18.9553L23.7406 19.0375L23.7474 18.9967V18.9553H23.2474ZM22.819 21.5247L22.3258 21.4425L22.1587 22.4447L23.0547 21.9656L22.819 21.5247ZM25.1217 20.2935L24.8981 19.8461L24.8859 19.8526L25.1217 20.2935ZM25.7643 20.2935L26.0001 19.8524L25.9878 19.8463L25.7643 20.2935ZM28.067 21.5247L27.8312 21.9656L28.7273 22.4447L28.5602 21.4425L28.067 21.5247ZM27.6386 18.9553L28.1317 18.8731L28.1285 18.8534L28.1236 18.834L27.6386 18.9553ZM27.8528 18.3665L27.5044 18.0077L27.4993 18.0129L27.8528 18.3665ZM29.727 16.5465L30.0754 16.9052L30.8035 16.1981L29.7992 16.0517L29.727 16.5465ZM27.1566 16.1718L27.0354 16.6568L27.0597 16.6629L27.0845 16.6665L27.1566 16.1718ZM26.6747 15.7971L27.1597 15.6758L27.1464 15.6225L27.1219 15.5734L26.6747 15.7971ZM25.4965 13.4418L25.9437 13.2181L25.4965 12.3241L25.0493 13.2181L25.4965 13.4418ZM24.3184 15.7971L24.7656 16.0208L24.7656 16.0208L24.3184 15.7971ZM23.8365 16.1718L23.9058 16.6669L23.932 16.6633L23.9577 16.6568L23.8365 16.1718ZM21.8551 22.9518C21.8339 22.9518 21.8203 22.9489 21.8056 22.944C21.7842 22.9368 21.7612 22.9262 21.7038 22.8975L21.2567 23.792C21.3677 23.8475 21.5671 23.9518 21.8551 23.9518V22.9518ZM21.7802 22.9447C21.7464 22.9194 21.7215 22.8853 21.7083 22.8532C21.6942 22.8191 21.7013 22.8086 21.6975 22.8237L20.7274 22.5811C20.6158 23.0274 20.838 23.4882 21.1803 23.7448L21.7802 22.9447ZM21.7059 22.7834L22.295 19.1969L21.3082 19.0348L20.7191 22.6213L21.7059 22.7834ZM22.1513 18.7586L19.5809 16.2427L18.8814 16.9574L21.4518 19.4732L22.1513 18.7586ZM19.5846 16.2464C19.5604 16.2222 19.5407 16.1893 19.5321 16.1583C19.5248 16.1321 19.526 16.1115 19.5347 16.0899L18.6062 15.7184C18.4055 16.2199 18.6162 16.6923 18.8776 16.9536L19.5846 16.2464ZM19.5607 16.0022C19.5647 15.9822 19.5711 15.973 19.5832 15.9626C19.5998 15.9485 19.6369 15.9261 19.704 15.9127L19.5079 14.9321C19.1061 15.0124 18.6847 15.2836 18.5802 15.806L19.5607 16.0022ZM19.6797 15.9169L23.2677 15.3816L23.1201 14.3925L19.5322 14.9278L19.6797 15.9169ZM23.6425 15.1078L25.249 11.8425L24.3518 11.401L22.7452 14.6663L23.6425 15.1078ZM25.2476 11.8454C25.2644 11.8118 25.2879 11.7862 25.3119 11.7702C25.334 11.7555 25.3587 11.7471 25.3895 11.7471V10.7471C24.9062 10.7471 24.5327 11.0393 24.3532 11.3981L25.2476 11.8454ZM25.3895 11.7471C25.4202 11.7471 25.4449 11.7555 25.467 11.7702C25.491 11.7862 25.5145 11.8118 25.5313 11.8454L26.4257 11.3981C26.2462 11.0393 25.8727 10.7471 25.3895 10.7471V11.7471ZM25.5299 11.8425L27.1364 15.1078L28.0337 14.6663L26.4271 11.401L25.5299 11.8425ZM27.5112 15.3816L31.0992 15.9169L31.2467 14.9278L27.6588 14.3925L27.5112 15.3816ZM31.0749 15.9127C31.142 15.9261 31.1791 15.9485 31.1957 15.9626C31.2078 15.973 31.2142 15.9822 31.2182 16.0022L32.1987 15.806C32.0942 15.2836 31.6728 15.0124 31.271 14.9321L31.0749 15.9127ZM31.2182 16.0022C31.2427 16.1246 31.2267 16.1949 31.1478 16.2999L31.9477 16.9001C32.1902 16.5769 32.2814 16.219 32.1987 15.806L31.2182 16.0022ZM31.198 16.2427L28.6276 18.7586L29.3271 19.4732L31.8975 16.9574L31.198 16.2427ZM28.4839 19.1969L29.073 22.7834L30.0598 22.6213L29.4707 19.0348L28.4839 19.1969ZM29.0761 22.8005C29.0843 22.8412 29.0778 22.8567 29.0749 22.8632C29.0701 22.8743 29.0533 22.9038 28.9988 22.9447L29.5986 23.7448C29.9358 23.492 30.1551 23.0961 30.0567 22.6043L29.0761 22.8005ZM28.9988 22.9447C28.9742 22.9631 28.9494 22.9712 28.9229 22.9726C28.894 22.9742 28.8597 22.9678 28.826 22.951L28.379 23.8455C28.7377 24.0248 29.2119 24.0347 29.5986 23.7448L28.9988 22.9447ZM28.8319 22.954L25.6189 21.2946L25.16 22.1831L28.3731 23.8425L28.8319 22.954ZM25.16 21.2946L21.947 22.954L22.4059 23.8425L25.6189 22.1831L25.16 21.2946ZM22.1764 22.8982C22.0506 22.8982 21.9363 22.9295 21.8945 22.94C21.8292 22.9563 21.8364 22.9518 21.8551 22.9518V23.9518C21.981 23.9518 22.0952 23.9206 22.137 23.9101C22.2023 23.8938 22.1952 23.8982 22.1764 23.8982V22.8982ZM20.8106 16.9052L22.6849 18.7252L23.3815 18.0078L21.5073 16.1878L20.8106 16.9052ZM22.6797 18.7201C22.7135 18.7539 22.7474 18.8183 22.7474 18.9553H23.7474C23.7474 18.664 23.6742 18.3003 23.3867 18.0129L22.6797 18.7201ZM22.7542 18.8731L22.3258 21.4425L23.3122 21.607L23.7406 19.0375L22.7542 18.8731ZM23.0547 21.9656L25.3574 20.7345L24.8859 19.8526L22.5832 21.0838L23.0547 21.9656ZM25.3452 20.7408C25.4187 20.7041 25.4673 20.7041 25.5407 20.7408L25.9878 19.8463C25.6329 19.6689 25.2531 19.6689 24.8982 19.8463L25.3452 20.7408ZM25.5285 20.7345L27.8312 21.9656L28.3027 21.0838L26 19.8526L25.5285 20.7345ZM28.5602 21.4425L28.1317 18.8731L27.1454 19.0375L27.5738 21.607L28.5602 21.4425ZM28.1236 18.834C28.1268 18.8467 28.1211 18.8478 28.1295 18.8266C28.1394 18.8021 28.1628 18.7635 28.2063 18.7201L27.4993 18.0129C27.2799 18.2321 27.0388 18.6182 27.1535 19.0766L28.1236 18.834ZM28.2011 18.7252L30.0754 16.9052L29.3787 16.1878L27.5044 18.0078L28.2011 18.7252ZM29.7992 16.0517L27.2288 15.677L27.0845 16.6665L29.6549 17.0412L29.7992 16.0517ZM27.2779 15.6867C27.2427 15.6779 27.2127 15.6682 27.188 15.6581C27.1631 15.6479 27.1479 15.639 27.1399 15.6335C27.1322 15.6282 27.135 15.6285 27.1414 15.637C27.1488 15.6468 27.156 15.6607 27.1597 15.6758L26.1896 15.9184C26.3167 16.4264 26.7974 16.5974 27.0354 16.6568L27.2779 15.6867ZM27.1219 15.5734L25.9437 13.2181L25.0494 13.6655L26.2275 16.0208L27.1219 15.5734ZM25.0493 13.2181L23.8713 15.5734L24.7656 16.0208L25.9437 13.6654L25.0493 13.2181ZM23.8713 15.5734C23.8491 15.6178 23.8301 15.6353 23.8177 15.6446C23.8032 15.6555 23.7748 15.6718 23.7152 15.6867L23.9577 16.6568C24.2894 16.574 24.5829 16.3861 24.7656 16.0208L23.8713 15.5734ZM23.7672 15.6766L21.0896 16.0513L21.2282 17.0416L23.9058 16.6669L23.7672 15.6766Z" fill="#0878C9" mask="url(#path-3-outside-1_1344_4545)"/>
</svg>
