<svg width="50" height="50" viewBox="0 0 50 50" fill="none" xmlns="http://www.w3.org/2000/svg">
<path d="M13.8223 34.8546H17.8921C18.4183 34.8546 18.7847 34.4079 18.7847 33.9623V24.2735C18.7847 23.8278 18.4183 23.3811 17.8921 23.3811H13.8223C13.3767 23.3811 12.9297 23.7473 12.9297 24.2735V33.9623C12.9297 34.4079 13.2962 34.8546 13.8223 34.8546ZM16.946 25.1658V33.0164H14.7149V25.1658H16.946Z" fill="#0878C9" stroke="#0878C9" stroke-width="0.5"/>
<path d="M21.3848 34.8548H25.4547C25.7127 34.8548 25.9491 34.745 26.1134 34.5809C26.2719 34.4223 26.3804 34.1935 26.3473 33.944V21.0083C26.3473 20.5626 25.9808 20.116 25.4547 20.116H21.3848C20.9392 20.116 20.4922 20.4822 20.4922 21.0083V33.9624C20.4922 34.4081 20.8587 34.8548 21.3848 34.8548ZM24.5085 21.9007V33.0166H22.2774V21.9007H24.5085Z" fill="#0878C9" stroke="#0878C9" stroke-width="0.5"/>
<path d="M28.4844 34.8546H32.5543C32.8123 34.8546 33.0488 34.7449 33.213 34.5807C33.3716 34.4222 33.48 34.1933 33.4469 33.9439V18.4387C33.4469 17.9931 33.0804 17.5464 32.5543 17.5464H28.4844C28.0388 17.5464 27.5918 17.9126 27.5918 18.4387V33.9623C27.5918 34.408 27.9583 34.8546 28.4844 34.8546ZM31.6081 19.3311V33.0164H29.377V19.3311H31.6081Z" fill="#0878C9" stroke="#0878C9" stroke-width="0.5"/>
<path d="M47.8751 30.5925V30.59C47.8751 26.3557 44.9826 22.5554 40.9427 21.3485C39.9 13.9861 34.0038 8.5 27.008 8.5C21.9276 8.5 17.3375 11.3875 14.8168 16.0337C14.2824 15.9855 13.7379 15.9406 13.1919 15.9406C6.46712 15.9406 1 21.4053 1 28.1276C1 34.8499 6.46712 40.3147 13.1919 40.3147H38.1466C43.4804 40.3147 47.8201 35.9732 47.8751 30.5925ZM39.1295 22.2646L39.1307 22.2766L39.1331 22.2884C39.2008 22.6269 39.472 22.9935 39.8621 23.0728C43.388 23.8514 45.9828 27.0682 45.9828 30.697C45.9828 35.0018 42.4533 38.5299 38.1466 38.5299H13.1919C7.49279 38.5299 2.83877 33.8777 2.83877 28.1811C2.83877 22.4846 7.49279 17.8323 13.1919 17.8323C13.8768 17.8323 14.4948 17.8852 15.0539 18.0376L15.0661 18.041L15.0786 18.043C15.4909 18.1117 15.9356 17.9136 16.0974 17.5246C18.2561 13.1633 22.4022 10.4453 26.9544 10.4453C33.1832 10.4453 38.4447 15.5245 39.1295 22.2646Z" fill="#0139A4" stroke="#0139A4" stroke-width="0.5"/>
</svg>
