<svg width="50" height="50" viewBox="0 0 50 50" fill="none" xmlns="http://www.w3.org/2000/svg">
<path d="M14.6944 40.4695L14.6978 40.4491V40.4284V18.9096C14.6978 18.6147 14.549 18.306 14.2383 18.1507C14.002 18.0326 13.6972 17.9382 13.379 18.0938L6.82003 20.9189C6.42036 21.0146 6.21875 21.4059 6.21875 21.7467V40.4284C6.21875 40.8741 6.58523 41.3208 7.11134 41.3208H13.6981C13.958 41.3208 14.1895 41.2099 14.3607 41.0559C14.5306 40.903 14.6571 40.6935 14.6944 40.4695ZM12.7519 20.3058V39.4825H8.00392V22.3398L12.7519 20.3058Z" fill="#0139A4" stroke="#0139A4" stroke-width="0.5"/>
<path d="M16.8662 16.4861L16.866 16.4858L16.8549 16.4914C16.5684 16.6346 16.3418 16.9284 16.3418 17.3039V40.4286C16.3418 40.8743 16.7083 41.3209 17.2344 41.3209H23.8212C24.3524 41.3209 24.6965 40.8743 24.764 40.4697L24.7674 40.4493V40.4286V14.4133C24.7674 14.1182 24.6184 13.8096 24.3078 13.6544C24.0712 13.5361 23.7663 13.4417 23.4477 13.5978L16.8662 16.4861ZM22.875 15.7595V39.4827H18.1271V17.8419L22.875 15.7595Z" fill="#0139A4" stroke="#0139A4" stroke-width="0.5"/>
<mask id="path-3-outside-1_1344_4544" maskUnits="userSpaceOnUse" x="25.6582" y="8.32324" width="10" height="34" fill="black">
<rect fill="white" x="25.6582" y="8.32324" width="10" height="34"/>
<path d="M33.8874 41.071H27.3008C26.9259 41.071 26.6582 40.7498 26.6582 40.4287V12.861C26.6582 12.5934 26.8188 12.3792 27.033 12.2722L33.6197 9.3816C33.8339 9.27454 34.0481 9.32806 34.2623 9.43512C34.4765 9.54218 34.5836 9.7563 34.5836 9.97041V19.3381C34.5836 19.7128 34.2623 19.9804 33.941 19.9804C33.6197 19.9804 33.2983 19.6592 33.2983 19.3381V10.9339L28.0506 13.2357V39.6792H33.2983V30.9539C33.2983 30.5792 33.6197 30.3116 33.941 30.3116C34.2623 30.3116 34.5836 30.6328 34.5836 30.9539V40.3751C34.5301 40.7498 34.2623 41.071 33.8874 41.071Z"/>
</mask>
<path d="M33.8874 41.071H27.3008C26.9259 41.071 26.6582 40.7498 26.6582 40.4287V12.861C26.6582 12.5934 26.8188 12.3792 27.033 12.2722L33.6197 9.3816C33.8339 9.27454 34.0481 9.32806 34.2623 9.43512C34.4765 9.54218 34.5836 9.7563 34.5836 9.97041V19.3381C34.5836 19.7128 34.2623 19.9804 33.941 19.9804C33.6197 19.9804 33.2983 19.6592 33.2983 19.3381V10.9339L28.0506 13.2357V39.6792H33.2983V30.9539C33.2983 30.5792 33.6197 30.3116 33.941 30.3116C34.2623 30.3116 34.5836 30.6328 34.5836 30.9539V40.3751C34.5301 40.7498 34.2623 41.071 33.8874 41.071Z" fill="#0139A4"/>
<path d="M27.033 12.2722L26.8321 11.8143L26.8207 11.8193L26.8095 11.8249L27.033 12.2722ZM33.6197 9.3816L33.8206 9.83945L33.8321 9.83443L33.8432 9.82885L33.6197 9.3816ZM33.2983 10.9339H33.7983V10.1686L33.0975 10.476L33.2983 10.9339ZM28.0506 13.2357L27.8497 12.7778L27.5506 12.909V13.2357H28.0506ZM28.0506 39.6792H27.5506V40.1792H28.0506V39.6792ZM33.2983 39.6792V40.1792H33.7983V39.6792H33.2983ZM34.5836 40.3751L35.0786 40.4458L35.0836 40.4107V40.3751H34.5836ZM33.8874 40.571H27.3008V41.571H33.8874V40.571ZM27.3008 40.571C27.2631 40.571 27.2304 40.5566 27.2024 40.5269C27.1704 40.4931 27.1582 40.4533 27.1582 40.4287H26.1582C26.1582 40.9988 26.6234 41.571 27.3008 41.571V40.571ZM27.1582 40.4287V12.861H26.1582V40.4287H27.1582ZM27.1582 12.861C27.1582 12.8304 27.1666 12.8058 27.1813 12.7838C27.1973 12.7598 27.2229 12.7362 27.2566 12.7194L26.8095 11.8249C26.4507 12.0043 26.1582 12.3777 26.1582 12.861H27.1582ZM27.234 12.73L33.8206 9.83945L33.4188 8.92375L26.8321 11.8143L27.234 12.73ZM33.8432 9.82885C33.8532 9.82388 33.8595 9.82177 33.879 9.82421C33.9077 9.82779 33.9575 9.84175 34.0387 9.88237L34.4858 8.98787C34.2238 8.85692 33.8234 8.7208 33.3962 8.93435L33.8432 9.82885ZM34.0387 9.88237C34.0536 9.88979 34.0624 9.89887 34.0692 9.91081C34.0772 9.92478 34.0836 9.94554 34.0836 9.97041H35.0836C35.0836 9.59445 34.8928 9.19127 34.4858 8.98787L34.0387 9.88237ZM34.0836 9.97041V19.3381H35.0836V9.97041H34.0836ZM34.0836 19.3381C34.0836 19.3755 34.0693 19.4081 34.0396 19.4362C34.0058 19.4681 33.9659 19.4804 33.941 19.4804V20.4804C34.511 20.4804 35.0836 20.0156 35.0836 19.3381H34.0836ZM33.941 19.4804C33.9439 19.4804 33.9354 19.4809 33.9164 19.4721C33.8974 19.4632 33.8745 19.4479 33.8527 19.426C33.8308 19.4042 33.8155 19.3813 33.8066 19.3624C33.7978 19.3434 33.7983 19.3351 33.7983 19.3381H32.7983C32.7983 19.6614 32.9551 19.9428 33.1458 20.1333C33.3365 20.3239 33.6179 20.4804 33.941 20.4804V19.4804ZM33.7983 19.3381V10.9339H32.7983V19.3381H33.7983ZM33.0975 10.476L27.8497 12.7778L28.2514 13.6936L33.4992 11.3918L33.0975 10.476ZM27.5506 13.2357V39.6792H28.5506V13.2357H27.5506ZM28.0506 40.1792H33.2983V39.1792H28.0506V40.1792ZM33.7983 39.6792V30.9539H32.7983V39.6792H33.7983ZM33.7983 30.9539C33.7983 30.9165 33.8127 30.8839 33.8424 30.8559C33.8763 30.8239 33.9162 30.8116 33.941 30.8116V29.8116C33.3712 29.8116 32.7983 30.2763 32.7983 30.9539H33.7983ZM33.941 30.8116C33.9382 30.8116 33.9466 30.8111 33.9656 30.8199C33.9846 30.8288 34.0075 30.8441 34.0293 30.8659C34.0512 30.8878 34.0665 30.9106 34.0753 30.9296C34.0842 30.9485 34.0836 30.9569 34.0836 30.9539H35.0836C35.0836 30.6307 34.927 30.3493 34.7363 30.1587C34.5456 29.9681 34.2643 29.8116 33.941 29.8116V30.8116ZM34.0836 30.9539V40.3751H35.0836V30.9539H34.0836ZM34.0886 40.3044C34.075 40.3999 34.0352 40.4752 33.9931 40.5196C33.9554 40.5594 33.9215 40.571 33.8874 40.571V41.571C34.5924 41.571 35.0027 40.9768 35.0786 40.4458L34.0886 40.3044Z" fill="#0139A4" mask="url(#path-3-outside-1_1344_4544)"/>
<path d="M40.047 29.455C39.4579 29.455 38.976 29.3479 38.4941 29.1338C38.0121 28.9197 37.6908 28.5985 37.3695 28.2238C37.1017 27.8491 36.8875 27.3673 36.834 26.832L38.1727 26.6179C38.2798 27.0997 38.4941 27.4744 38.8689 27.742C39.2438 28.0097 39.6185 28.1703 40.154 28.1703C40.636 28.1703 41.0108 28.0632 41.3321 27.8491C41.6534 27.635 41.8141 27.3673 41.8141 26.9926C41.8141 26.7785 41.7605 26.5644 41.5999 26.4038C41.4392 26.2432 41.2251 26.1362 40.9038 26.0291L38.9224 25.4403C37.7443 25.0656 37.2088 24.3697 37.2088 23.3526C37.2088 22.8709 37.3159 22.4426 37.5836 22.0679C37.7978 21.6932 38.1727 21.4256 38.5476 21.2115C38.976 20.9974 39.4579 20.9438 40.047 20.9438C40.5825 20.9438 41.0644 21.0509 41.4928 21.2115C41.9212 21.4256 42.2425 21.6932 42.5638 22.0144C42.8315 22.3891 43.0458 22.8174 43.1529 23.2991L41.7605 23.5668C41.707 23.2991 41.6 23.085 41.4393 22.8709C41.2787 22.6567 41.0644 22.4962 40.8502 22.3891C40.636 22.2821 40.3683 22.2285 40.047 22.2285C39.7792 22.2285 39.5115 22.282 39.2973 22.3356C39.0831 22.4426 38.9225 22.5497 38.7618 22.7103C38.6547 22.8709 38.5476 23.0315 38.5476 23.2456C38.5476 23.4597 38.6547 23.6738 38.8153 23.8344C38.976 23.995 39.2973 24.1556 39.6722 24.2626L41.1716 24.6909C41.8677 24.905 42.4032 25.1726 42.7245 25.5473C43.0458 25.922 43.2064 26.3503 43.2064 26.9391C43.2064 27.4744 43.0993 27.9026 42.8315 28.2773C42.5638 28.652 42.2425 28.9732 41.7605 29.1873C41.1715 29.3479 40.636 29.455 40.047 29.455ZM39.3508 21.265V19.9268H40.7431V21.265H39.3508ZM39.3508 30.4185V29.0803H40.7431V30.4185H39.3508Z" fill="#0878C9"/>
<path d="M30.8008 25.1728C30.8008 30.2356 34.8756 34.3086 39.9402 34.3086C45.0048 34.3086 49.0795 30.2356 49.0795 25.1728C49.0795 20.1099 45.0048 16.0369 39.9402 16.0369C34.8756 16.0369 30.8008 20.1099 30.8008 25.1728ZM32.6395 25.1728C32.6395 21.1356 35.9012 17.8751 39.9402 17.8751C43.9791 17.8751 47.2407 21.1356 47.2407 25.1728C47.2407 29.2099 43.9791 32.4704 39.9402 32.4704C35.9012 32.4704 32.6395 29.2099 32.6395 25.1728Z" fill="#0878C9" stroke="#0878C9" stroke-width="0.5"/>
</svg>
