<svg width="50" height="50" viewBox="0 0 50 50" fill="none" xmlns="http://www.w3.org/2000/svg">
<path d="M23.1294 44.5976L23.1296 44.5979C23.377 45.0733 23.8726 45.4 24.4439 45.4C24.9907 45.4 25.481 45.0989 25.7727 44.6563L25.7733 44.6566L25.7799 44.6442L36.0548 25.3477L36.055 25.3474L36.5676 24.378L36.5677 24.3781L36.5701 24.373C37.4492 22.5493 37.9 20.5884 37.9 18.537C37.9 14.8675 36.4575 11.4248 33.8429 8.87161C31.2286 6.31859 27.7788 4.97275 24.1489 5.10948C17.2937 5.33773 11.6826 10.9468 11.3669 17.8761C11.2543 20.1325 11.705 22.3666 12.6744 24.3732L12.6744 24.3732L12.6759 24.3761L13.0316 25.0732L13.0325 25.0749L13.0762 25.1634L13.0762 25.1634L13.0774 25.1658L23.1294 44.5976ZM24.1327 44.0564L24.1314 44.0539L13.6569 23.835C12.7775 22.0108 12.3809 19.94 12.469 17.8899C12.7553 11.5654 17.8855 6.42234 24.1568 6.19838H24.1569H24.1578H24.1587H24.1597H24.1606H24.1615H24.1624H24.1633H24.1642H24.1651H24.166H24.1669H24.1678H24.1687H24.1696H24.1706H24.1715H24.1724H24.1733H24.1742H24.1751H24.176H24.1769H24.1778H24.1787H24.1796H24.1805H24.1814H24.1823H24.1832H24.1841H24.185H24.1859H24.1868H24.1877H24.1886H24.1895H24.1904H24.1913H24.1921H24.193H24.1939H24.1948H24.1957H24.1966H24.1975H24.1984H24.1993H24.2002H24.2011H24.202H24.2029H24.2037H24.2046H24.2055H24.2064H24.2073H24.2082H24.2091H24.21H24.2108H24.2117H24.2126H24.2135H24.2144H24.2153H24.2162H24.217H24.2179H24.2188H24.2197H24.2206H24.2214H24.2223H24.2232H24.2241H24.225H24.2258H24.2267H24.2276H24.2285H24.2294H24.2302H24.2311H24.232H24.2329H24.2338H24.2346H24.2355H24.2364H24.2373H24.2381H24.239H24.2399H24.2408H24.2416H24.2425H24.2434H24.2442H24.2451H24.246H24.2469H24.2477H24.2486H24.2495H24.2504H24.2512H24.2521H24.253H24.2538H24.2547H24.2556H24.2564H24.2573H24.2582H24.259H24.2599H24.2608H24.2616H24.2625H24.2634H24.2642H24.2651H24.266H24.2668H24.2677H24.2686H24.2694H24.2703H24.2712H24.272H24.2729H24.2738H24.2746H24.2755H24.2763H24.2772H24.2781H24.2789H24.2798H24.2807H24.2815H24.2824H24.2832H24.2841H24.285H24.2858H24.2867H24.2875H24.2884H24.2893H24.2901H24.291H24.2918H24.2927H24.2936H24.2944H24.2953H24.2961H24.297H24.2978H24.2987H24.2996H24.3004H24.3013H24.3021H24.303H24.3038H24.3047H24.3056H24.3064H24.3073H24.3081H24.309H24.3098H24.3107H24.3115H24.3124H24.3133H24.3141H24.315H24.3158H24.3167H24.3175H24.3184H24.3192H24.3201H24.3209H24.3218H24.3226H24.3235H24.3244H24.3252H24.3261H24.3269H24.3278H24.3286H24.3295H24.3303H24.3312H24.332H24.3329H24.3337H24.3346H24.3354H24.3363H24.3371H24.338H24.3388H24.3397H24.3405H24.3414H24.3422H24.3431H24.3439H24.3448H24.3456H24.3465H24.3473H24.3482H24.349H24.3499H24.3507H24.3516H24.3524H24.3533H24.3541H24.355H24.3558H24.3567H24.3575H24.3584H24.3592H24.3601H24.3609H24.3618H24.3626H24.3635H24.3643H24.3652H24.366H24.3669H24.3677H24.3686H24.3694H24.3703H24.3711H24.372H24.3728H24.3737H24.3745H24.3754H24.3762H24.3771H24.3779H24.3788H24.3796H24.3805H24.3813H24.3822H24.383H24.3839H24.3847H24.3855H24.3864H24.3872H24.3881H24.3889H24.3898H24.3906H24.3915H24.3923H24.3932H24.394H24.3949H24.3957H24.3966H24.3974H24.3983H24.3991H24.4H24.4008H24.4017H24.4025H24.4034H24.4042H24.4051H24.4059H24.4068H24.4076H24.4085H24.4093H24.4102H24.411H24.4119H24.4127H24.4136H24.4144H24.4153H24.4161H24.417H24.4178H24.4187H24.4195H24.4204H24.4212H24.4221H24.423H24.4238H24.4247H24.4255H24.4264H24.4272H24.4281H24.4289H24.4298H24.4306H24.4315H24.4323H24.4332H24.434H24.4349H24.4357H24.4366H24.4374H24.4383H24.4392H24.44H24.4409H24.4417H24.4426H24.4434H24.4443H24.4451H24.446H24.4469H24.4477H24.4486H24.4494H24.4503H24.4511H24.452H24.4528H24.4537H24.4546H24.4554H24.4563H24.4571H24.458H24.4588H24.4597H24.4606H24.4614H24.4623H24.4631H24.464H24.4649H24.4657H24.4666H24.4674H24.4683H24.4692H24.47H24.4709H24.4717H24.4726H24.4735H24.4743H24.4752H24.476H24.4769H24.4778H24.4786H24.4795H24.4804H24.4812H24.4821H24.483H24.4838H24.4847H24.4855H24.4864H24.4873H24.4881H24.489H24.4899H24.4907H24.4916H24.4925H24.4933H24.4942H24.4951H24.4959H24.4968H24.4977H24.4986H24.4994H24.5003H24.5012H24.502H24.5029H24.5038H24.5046H24.5055H24.5064H24.5073H24.5081H24.509H24.5099H24.5107H24.5116H24.5125H24.5134H24.5142H24.5151H24.516H24.5169H24.5177H24.5186H24.5195H24.5204H24.5212H24.5221H24.523H24.5239H24.5248H24.5256H24.5265H24.5274H24.5283H24.5292H24.53H24.5309H24.5318H24.5327H24.5336H24.5344H24.5353H24.5362H24.5371H24.538H24.5389H24.5397H24.5406H24.5415H24.5424H24.5433H24.5442H24.5451H24.5459H24.5468H24.5477H24.5486H24.5495H24.5504H24.5513H24.5522H24.5531H24.5539H24.5548H24.5557H24.5566H24.5575H24.5584H24.5593H24.5602H24.5611H24.562H24.5629H24.5638H24.5647H24.5656H24.5665H24.5673H24.5682H24.5691H24.57H24.5709H24.5718H24.5727H24.5736H24.5745H24.5754H24.5763H24.5772H24.5781H24.579H24.58H24.5809H24.5818H24.5827H24.5836H24.5845H24.5854H24.5863H24.5872H24.5881H24.589H24.5899H24.5908H24.5917H24.5926H24.5936H24.5945H24.5954H24.5963H24.5972H24.5981H24.599H24.5999C27.7472 6.19838 30.7414 7.42239 33.0545 9.62794C35.4545 11.9665 36.7753 15.106 36.7753 18.4694C36.7753 20.3619 36.3574 22.1647 35.5657 23.8118L24.7842 44.0436C24.6917 44.1714 24.578 44.2434 24.4439 44.2434C24.315 44.2434 24.1933 44.1791 24.1327 44.0564Z" fill="#0139A4" stroke="black" stroke-width="0.3"/>
<mask id="path-2-outside-1_1344_4543" maskUnits="userSpaceOnUse" x="10.25" y="4" width="29" height="42" fill="black">
<rect fill="white" x="10.25" y="4" width="29" height="42"/>
<path fill-rule="evenodd" clip-rule="evenodd" d="M23.0406 44.6435L12.9865 25.2077L12.9427 25.119L12.5843 24.4167C11.6076 22.395 11.1536 20.1442 11.267 17.8713C11.5852 10.8911 17.2372 5.23967 24.1453 5.00955C27.803 4.87183 31.2791 6.22822 33.9128 8.80006C36.5467 11.3722 38 14.8408 38 18.537C38 20.6034 37.5458 22.5792 36.6602 24.4165L36.6561 24.4249L36.1434 25.3941L25.8627 44.7015L25.8562 44.7113C25.5483 45.1785 25.0283 45.5 24.4439 45.5C23.8334 45.5 23.3043 45.1503 23.0406 44.6435ZM24.1542 5.25939C17.3786 5.48482 11.8288 11.0303 11.5168 17.8833C11.4053 20.115 11.8511 22.3242 12.8095 24.3079L13.1661 25.0067L13.2107 25.0969L23.2626 44.5286C23.4855 44.9569 23.9313 45.25 24.4439 45.25C24.9343 45.25 25.38 44.9795 25.6475 44.5737L35.9224 25.2772L36.435 24.3079C37.3042 22.5045 37.75 20.5658 37.75 18.537C37.75 14.9076 36.3236 11.5037 33.7381 8.97892C31.1527 6.45415 27.7426 5.12414 24.1542 5.25939ZM24.2223 44.0121C24.2639 44.0963 24.3479 44.1434 24.4439 44.1434C24.5347 44.1434 24.6202 44.0973 24.6993 43.9904L35.4764 23.7666C36.2611 22.1335 36.6753 20.3462 36.6753 18.4694C36.6753 15.133 35.3654 12.0196 32.9852 9.69997C30.6901 7.51184 27.7206 6.29838 24.5999 6.29838H24.1597C17.9422 6.52136 12.8529 11.6215 12.5689 17.8943C12.4815 19.9285 12.875 21.9823 13.7463 23.7903L24.2223 44.0121ZM13.5227 23.9021C12.6312 22.0536 12.23 19.9572 12.3191 17.8833C12.6089 11.4812 17.802 6.27381 24.1542 6.04838H24.5999C27.7872 6.04838 30.8184 7.28823 33.1586 9.51995C35.588 11.8869 36.9253 15.0654 36.9253 18.4694C36.9253 20.3855 36.5019 22.2114 35.6995 23.8796L24.912 44.1229C24.8005 44.2807 24.6445 44.3934 24.4439 44.3934C24.2656 44.3934 24.0873 44.3032 23.9982 44.1229L13.5227 23.9021Z"/>
</mask>
<path fill-rule="evenodd" clip-rule="evenodd" d="M23.0406 44.6435L12.9865 25.2077L12.9427 25.119L12.5843 24.4167C11.6076 22.395 11.1536 20.1442 11.267 17.8713C11.5852 10.8911 17.2372 5.23967 24.1453 5.00955C27.803 4.87183 31.2791 6.22822 33.9128 8.80006C36.5467 11.3722 38 14.8408 38 18.537C38 20.6034 37.5458 22.5792 36.6602 24.4165L36.6561 24.4249L36.1434 25.3941L25.8627 44.7015L25.8562 44.7113C25.5483 45.1785 25.0283 45.5 24.4439 45.5C23.8334 45.5 23.3043 45.1503 23.0406 44.6435ZM24.1542 5.25939C17.3786 5.48482 11.8288 11.0303 11.5168 17.8833C11.4053 20.115 11.8511 22.3242 12.8095 24.3079L13.1661 25.0067L13.2107 25.0969L23.2626 44.5286C23.4855 44.9569 23.9313 45.25 24.4439 45.25C24.9343 45.25 25.38 44.9795 25.6475 44.5737L35.9224 25.2772L36.435 24.3079C37.3042 22.5045 37.75 20.5658 37.75 18.537C37.75 14.9076 36.3236 11.5037 33.7381 8.97892C31.1527 6.45415 27.7426 5.12414 24.1542 5.25939ZM24.2223 44.0121C24.2639 44.0963 24.3479 44.1434 24.4439 44.1434C24.5347 44.1434 24.6202 44.0973 24.6993 43.9904L35.4764 23.7666C36.2611 22.1335 36.6753 20.3462 36.6753 18.4694C36.6753 15.133 35.3654 12.0196 32.9852 9.69997C30.6901 7.51184 27.7206 6.29838 24.5999 6.29838H24.1597C17.9422 6.52136 12.8529 11.6215 12.5689 17.8943C12.4815 19.9285 12.875 21.9823 13.7463 23.7903L24.2223 44.0121ZM13.5227 23.9021C12.6312 22.0536 12.23 19.9572 12.3191 17.8833C12.6089 11.4812 17.802 6.27381 24.1542 6.04838H24.5999C27.7872 6.04838 30.8184 7.28823 33.1586 9.51995C35.588 11.8869 36.9253 15.0654 36.9253 18.4694C36.9253 20.3855 36.5019 22.2114 35.6995 23.8796L24.912 44.1229C24.8005 44.2807 24.6445 44.3934 24.4439 44.3934C24.2656 44.3934 24.0873 44.3032 23.9982 44.1229L13.5227 23.9021Z" fill="#0139A4"/>
<path d="M23.0406 44.6435L22.5965 44.8732L22.5971 44.8743L23.0406 44.6435ZM12.9865 25.2077L12.5381 25.4291L12.5424 25.4374L12.9865 25.2077ZM12.9427 25.119L13.3911 24.8976L13.3881 24.8917L12.9427 25.119ZM12.5843 24.4167L12.134 24.6342L12.1389 24.644L12.5843 24.4167ZM11.267 17.8713L11.7664 17.8963L11.7665 17.8941L11.267 17.8713ZM24.1453 5.00955L24.162 5.50928L24.1641 5.50919L24.1453 5.00955ZM33.9128 8.80006L34.2621 8.44234L34.2621 8.44234L33.9128 8.80006ZM36.6602 24.4165L36.2098 24.1994L36.2098 24.1994L36.6602 24.4165ZM36.6561 24.4249L37.0981 24.6587L37.1025 24.6504L37.1066 24.6419L36.6561 24.4249ZM36.1434 25.3941L36.5847 25.6291L36.5853 25.6279L36.1434 25.3941ZM25.8627 44.7015L26.2801 44.9767L26.293 44.9572L26.304 44.9365L25.8627 44.7015ZM25.8562 44.7113L25.4388 44.4361L25.4388 44.4361L25.8562 44.7113ZM11.5168 17.8833L12.0161 17.9082L12.0162 17.906L11.5168 17.8833ZM24.1542 5.25939L24.1708 5.75912L24.173 5.75904L24.1542 5.25939ZM12.8095 24.3079L12.3591 24.5255L12.3641 24.5352L12.8095 24.3079ZM13.1661 25.0067L13.6144 24.7852L13.6115 24.7794L13.1661 25.0067ZM13.2107 25.0969L12.7623 25.3185L12.7666 25.3266L13.2107 25.0969ZM23.2626 44.5286L22.8185 44.7584L22.8191 44.7594L23.2626 44.5286ZM25.6475 44.5737L26.065 44.8489L26.0778 44.8294L26.0888 44.8087L25.6475 44.5737ZM35.9224 25.2772L36.3637 25.5122L36.3644 25.511L35.9224 25.2772ZM36.435 24.3079L36.877 24.5417L36.8813 24.5334L36.8854 24.525L36.435 24.3079ZM33.7381 8.97892L33.3888 9.33665L33.3888 9.33665L33.7381 8.97892ZM24.2223 44.0121L24.6706 43.7905L24.6662 43.7821L24.2223 44.0121ZM24.6993 43.9904L25.1013 44.2876L25.1232 44.258L25.1406 44.2255L24.6993 43.9904ZM35.4764 23.7666L35.9177 24.0017L35.9226 23.9925L35.9271 23.9831L35.4764 23.7666ZM32.9852 9.69997L33.3341 9.34186L33.3302 9.33809L32.9852 9.69997ZM24.1597 6.29838V5.79838H24.1507L24.1417 5.7987L24.1597 6.29838ZM12.5689 17.8943L12.0694 17.8717L12.0694 17.8728L12.5689 17.8943ZM13.7463 23.7903L13.2959 24.0074L13.2991 24.0139L13.3024 24.0203L13.7463 23.7903ZM12.3191 17.8833L11.8196 17.8607L11.8196 17.8618L12.3191 17.8833ZM13.5227 23.9021L13.0723 24.1193L13.0755 24.1258L13.0787 24.1321L13.5227 23.9021ZM24.1542 6.04838V5.54838H24.1453L24.1364 5.5487L24.1542 6.04838ZM33.1586 9.51995L33.5076 9.1618L33.5037 9.1581L33.1586 9.51995ZM35.6995 23.8796L36.1408 24.1147L36.1456 24.1056L36.1501 24.0963L35.6995 23.8796ZM24.912 44.1229L25.3204 44.4113L25.3385 44.3857L25.3532 44.358L24.912 44.1229ZM23.9982 44.1229L24.4465 43.9013L24.4421 43.8929L23.9982 44.1229ZM12.4944 25.3403L12.5382 25.429L13.4348 24.9863L13.391 24.8976L12.4944 25.3403ZM10.7677 17.8464C10.6501 20.202 11.1205 22.5362 12.1341 24.6342L13.0345 24.1992C12.0946 22.2537 11.6571 20.0865 11.7664 17.8963L10.7677 17.8464ZM24.1287 4.50983C16.9547 4.74881 11.0973 10.6129 10.7676 17.8486L11.7665 17.8941C12.073 11.1693 17.5197 5.73054 24.162 5.50927L24.1287 4.50983ZM34.2621 8.44234C31.5318 5.77611 27.9231 4.36695 24.1265 4.5099L24.1641 5.50919C27.6829 5.37671 31.0265 6.68033 33.5635 9.15779L34.2621 8.44234ZM38.5 18.537C38.5 14.7071 36.9931 11.1093 34.2621 8.44234L33.5635 9.15779C36.1004 11.6352 37.5 14.9745 37.5 18.537H38.5ZM37.1106 24.6336C38.0288 22.7285 38.5 20.6786 38.5 18.537H37.5C37.5 20.5283 37.0627 22.4298 36.2098 24.1994L37.1106 24.6336ZM37.1066 24.6419L37.1106 24.6335L36.2098 24.1994L36.2057 24.2078L37.1066 24.6419ZM26.2737 44.9865L26.2801 44.9767L25.4452 44.4264L25.4388 44.4361L26.2737 44.9865ZM24.4439 46C25.2167 46 25.885 45.5762 26.2737 44.9865L25.4388 44.4361C25.2116 44.7808 24.8399 45 24.4439 45V46ZM22.5971 44.8743C22.9423 45.5378 23.6373 46 24.4439 46V45C24.0296 45 23.6663 44.7628 23.4841 44.4127L22.5971 44.8743ZM12.0162 17.906C12.3166 11.3085 17.661 5.9757 24.1708 5.75911L24.1376 4.75967C17.0961 4.99394 11.3409 10.7521 11.0173 17.8605L12.0162 17.906ZM13.2597 24.0904C12.3381 22.1829 11.9088 20.0572 12.0161 17.9082L11.0174 17.8583C10.9018 20.1727 11.364 22.4654 12.3593 24.5254L13.2597 24.0904ZM13.6115 24.7794L13.2548 24.0806L12.3641 24.5352L12.7207 25.234L13.6115 24.7794ZM13.6589 24.8754L13.6143 24.7852L12.7179 25.2283L12.7624 25.3184L13.6589 24.8754ZM23.7067 44.2989L13.6548 24.8672L12.7666 25.3266L22.8185 44.7584L23.7067 44.2989ZM24.4439 44.75C24.1271 44.75 23.8474 44.5691 23.7062 44.2978L22.8191 44.7594C23.1237 45.3448 23.7356 45.75 24.4439 45.75V44.75ZM25.23 44.2985C25.0435 44.5815 24.7462 44.75 24.4439 44.75V45.75C25.1224 45.75 25.7166 45.3775 26.065 44.8489L25.23 44.2985ZM35.481 25.0422L25.2062 44.3387L26.0888 44.8087L36.3637 25.5122L35.481 25.0422ZM35.993 24.0742L35.4804 25.0435L36.3644 25.511L36.877 24.5417L35.993 24.0742ZM37.25 18.537C37.25 20.4907 36.8212 22.3551 35.9846 24.0908L36.8854 24.525C37.7873 22.6539 38.25 20.641 38.25 18.537H37.25ZM33.3888 9.33665C35.8772 11.7666 37.25 15.0413 37.25 18.537H38.25C38.25 14.774 36.7699 11.2408 34.0874 8.6212L33.3888 9.33665ZM24.173 5.75904C27.6225 5.62902 30.9 6.90627 33.3888 9.33665L34.0874 8.6212C31.4054 6.00203 27.8627 4.61925 24.1353 4.75975L24.173 5.75904ZM24.4439 43.6434C24.4778 43.6434 24.5209 43.6519 24.5648 43.6775C24.6099 43.7038 24.6473 43.7435 24.6705 43.7905L23.7741 44.2337C23.9093 44.5073 24.1798 44.6434 24.4439 44.6434V43.6434ZM24.2973 43.6931C24.2878 43.706 24.2946 43.6923 24.3239 43.6752C24.357 43.6559 24.3998 43.6434 24.4439 43.6434V44.6434C24.7364 44.6434 24.9569 44.4829 25.1013 44.2876L24.2973 43.6931ZM35.0352 23.5314L24.2581 43.7552L25.1406 44.2255L35.9177 24.0017L35.0352 23.5314ZM36.1753 18.4694C36.1753 20.2713 35.7779 21.9846 35.0258 23.55L35.9271 23.9831C36.7443 22.2825 37.1753 20.4211 37.1753 18.4694H36.1753ZM32.6362 10.0581C34.9194 12.2831 36.1753 15.2672 36.1753 18.4694H37.1753C37.1753 14.9988 35.8114 11.756 33.3341 9.34188L32.6362 10.0581ZM24.5999 6.79838C27.5884 6.79838 30.4353 7.95975 32.6401 10.0618L33.3302 9.33809C30.9449 7.06393 27.8528 5.79838 24.5999 5.79838V6.79838ZM13.0684 17.9169C13.3408 11.8996 18.225 7.01153 24.1776 6.79806L24.1417 5.7987C17.6593 6.03118 12.365 11.3434 12.0694 17.8717L13.0684 17.9169ZM14.1968 23.5733C13.3636 21.8443 12.9843 19.8732 13.0684 17.9158L12.0694 17.8728C11.9787 19.9838 12.3865 22.1202 13.2959 24.0074L14.1968 23.5733ZM11.8196 17.8618C11.7271 20.0125 12.1426 22.1917 13.0723 24.1193L13.9731 23.6849C13.1197 21.9156 12.7328 19.9018 12.8187 17.9047L11.8196 17.8618ZM24.1364 5.5487C17.5192 5.78353 12.121 11.2031 11.8196 17.8607L12.8186 17.9059C13.0968 11.7592 18.0849 6.76409 24.1719 6.54807L24.1364 5.5487ZM24.5999 5.54838H24.1542V6.54838H24.5999V5.54838ZM33.5037 9.1581C31.0732 6.84033 27.9194 5.54838 24.5999 5.54838V6.54838C27.6549 6.54838 30.5635 7.73612 32.8136 9.88179L33.5037 9.1581ZM37.4253 18.4694C37.4253 14.9312 36.034 11.6233 33.5076 9.16182L32.8097 9.87807C35.1421 12.1505 36.4253 15.1997 36.4253 18.4694H37.4253ZM36.1501 24.0963C36.985 22.3605 37.4253 20.4605 37.4253 18.4694H36.4253C36.4253 20.3105 36.0187 22.0624 35.2489 23.6629L36.1501 24.0963ZM25.3532 44.358L36.1408 24.1147L35.2582 23.6445L24.4707 43.8877L25.3532 44.358ZM24.4439 44.8934C24.8577 44.8934 25.149 44.6541 25.3204 44.4113L24.5036 43.8344C24.4779 43.8708 24.458 43.8862 24.4497 43.8912C24.4461 43.8935 24.4449 43.8936 24.4457 43.8934C24.4467 43.8931 24.4466 43.8934 24.4439 43.8934V44.8934ZM23.5499 44.3445C23.7342 44.7171 24.101 44.8934 24.4439 44.8934V43.8934C24.4414 43.8934 24.4392 43.893 24.4379 43.8927C24.4366 43.8923 24.4366 43.8922 24.4378 43.8929C24.4391 43.8936 24.4412 43.8951 24.4433 43.8973C24.4456 43.8997 24.4465 43.9015 24.4464 43.9013L23.5499 44.3445ZM13.0787 24.1321L23.5542 44.3529L24.4421 43.8929L13.9667 23.6721L13.0787 24.1321ZM12.5424 25.4374L22.5965 44.8732L23.4847 44.4138L13.4306 24.978L12.5424 25.4374ZM12.1389 24.644L12.4973 25.3462L13.3881 24.8917L13.0297 24.1894L12.1389 24.644ZM36.5853 25.6279L37.0981 24.6587L36.2142 24.191L35.7014 25.1603L36.5853 25.6279ZM26.304 44.9365L36.5847 25.6291L35.702 25.1591L25.4213 44.4665L26.304 44.9365ZM24.1597 6.79838H24.5999V5.79838H24.1597V6.79838ZM24.6662 43.7821L14.1903 23.5603L13.3024 24.0203L23.7783 44.2421L24.6662 43.7821Z" fill="#0139A4" mask="url(#path-2-outside-1_1344_4543)"/>
<path d="M16.35 19C16.35 23.8956 20.053 27.9 24.625 27.9C29.197 27.9 32.9 23.8956 32.9 19C32.9 14.1044 29.197 10.1 24.625 10.1C20.053 10.1 16.35 14.1044 16.35 19ZM17.4828 18.9758C17.4828 14.7332 20.6897 11.2726 24.625 11.2726C28.5603 11.2726 31.7672 14.7332 31.7672 18.9758C31.7672 23.2183 28.5603 26.6789 24.625 26.6789C20.7119 26.6789 17.4828 23.218 17.4828 18.9758Z" fill="#0878C9" stroke="black" stroke-width="0.3"/>
<path d="M16 19C16 24.0639 19.8356 28.25 24.625 28.25C29.4144 28.25 33.25 24.0638 33.25 19C33.25 13.9361 29.4144 9.75 24.625 9.75C19.8356 9.75 16 13.9361 16 19ZM17.8328 18.9758C17.8328 14.9011 20.9075 11.6226 24.625 11.6226C28.3426 11.6226 31.4172 14.9011 31.4172 18.9758C31.4172 23.0504 28.3426 26.3289 24.625 26.3289C20.929 26.3289 17.8328 23.0494 17.8328 18.9758ZM24.625 27.5C20.3013 27.5 16.75 23.7031 16.75 19C16.75 14.2969 20.3013 10.5 24.625 10.5C28.9487 10.5 32.5 14.2969 32.5 19C32.5 23.7031 28.9487 27.5 24.625 27.5ZM24.625 10.8726C20.4406 10.8726 17.0828 14.5416 17.0828 18.9758C17.0828 23.4105 20.4636 27.0789 24.625 27.0789C28.8094 27.0789 32.1672 23.4099 32.1672 18.9758C32.1672 14.5416 28.8094 10.8726 24.625 10.8726Z" fill="#0878C9" stroke="#0878C9" stroke-width="0.5"/>
</svg>
