<svg width="50" height="50" viewBox="0 0 50 50" fill="none" xmlns="http://www.w3.org/2000/svg">
<path d="M34.563 42.2404H16.1414C14.16 42.2404 12.5 40.6345 12.5 38.6004V20.1864C12.5 18.2058 14.1065 16.5464 16.1414 16.5464H34.563C36.5444 16.5464 38.2045 18.1523 38.2045 20.1864V38.6004C38.2045 40.581 36.5979 42.2404 34.563 42.2404ZM16.1414 17.8846C14.8562 17.8846 13.8388 18.9017 13.8388 20.1864V38.6004C13.8388 39.8851 14.8562 40.9022 16.1414 40.9022H34.563C35.8482 40.9022 36.8657 39.8851 36.8657 38.6004V20.1864C36.8657 18.9017 35.8482 17.8846 34.563 17.8846H16.1414Z" fill="#0139A4"/>
<path fill-rule="evenodd" clip-rule="evenodd" d="M34.563 42.7404H16.1414C13.8889 42.7404 12 40.9156 12 38.6004V20.1864C12 17.9343 13.8258 16.0464 16.1414 16.0464H34.563C36.8155 16.0464 38.7045 17.8711 38.7045 20.1864V38.6004C38.7045 40.8525 36.8786 42.7404 34.563 42.7404ZM16.1414 18.3846C15.1322 18.3846 14.3388 19.178 14.3388 20.1864V38.6004C14.3388 39.6088 15.1322 40.4022 16.1414 40.4022H34.563C35.5722 40.4022 36.3657 39.6088 36.3657 38.6004V20.1864C36.3657 19.178 35.5723 18.3846 34.563 18.3846H16.1414ZM16.1414 42.2404H34.563C36.5979 42.2404 38.2045 40.581 38.2045 38.6004V20.1864C38.2045 18.1523 36.5444 16.5464 34.563 16.5464H16.1414C14.1065 16.5464 12.5 18.2058 12.5 20.1864V38.6004C12.5 40.6345 14.16 42.2404 16.1414 42.2404ZM13.8388 20.1864C13.8388 18.9017 14.8562 17.8846 16.1414 17.8846H34.563C35.8482 17.8846 36.8657 18.9017 36.8657 20.1864V38.6004C36.8657 39.8851 35.8482 40.9022 34.563 40.9022H16.1414C14.8562 40.9022 13.8388 39.8851 13.8388 38.6004V20.1864Z" fill="#0139A4"/>
<path d="M30.6542 17.6706C30.2794 17.6706 30.0116 17.3494 30.0116 17.0282V13.4417C30.0116 10.9259 27.9231 8.83823 25.4062 8.83823C22.8893 8.83823 20.8009 10.9259 20.8009 13.4417V17.0282C20.8009 17.4029 20.4795 17.6706 20.1582 17.6706C19.8369 17.6706 19.5156 17.3494 19.5156 17.0282V13.4417C19.5156 10.1764 22.1931 7.5 25.4597 7.5C28.7263 7.5 31.4039 10.1764 31.4039 13.4417V17.0282C31.2968 17.4029 31.0291 17.6706 30.6542 17.6706Z" fill="#0139A4"/>
<path fill-rule="evenodd" clip-rule="evenodd" d="M31.9039 17.0983L31.8846 17.1656C31.7364 17.6842 31.3181 18.1706 30.6542 18.1706C29.9769 18.1706 29.5116 17.5984 29.5116 17.0282V13.4417C29.5116 11.2022 27.6471 9.33823 25.4062 9.33823C23.1653 9.33823 21.3009 11.2022 21.3009 13.4417V17.0282C21.3009 17.7058 20.7281 18.1706 20.1582 18.1706C19.835 18.1706 19.5536 18.014 19.3629 17.8234C19.1723 17.6328 19.0156 17.3515 19.0156 17.0282V13.4417C19.0156 9.90012 21.9172 7 25.4597 7C29.0023 7 31.9039 9.90012 31.9039 13.4417V17.0983ZM30.0116 17.0282C30.0116 17.3494 30.2794 17.6706 30.6542 17.6706C31.0291 17.6706 31.2968 17.4029 31.4039 17.0282V13.4417C31.4039 10.1764 28.7263 7.5 25.4597 7.5C22.1931 7.5 19.5156 10.1764 19.5156 13.4417V17.0282C19.5156 17.3494 19.8369 17.6706 20.1582 17.6706C20.4795 17.6706 20.8009 17.4029 20.8009 17.0282V13.4417C20.8009 10.9259 22.8893 8.83823 25.4062 8.83823C27.9231 8.83823 30.0116 10.9259 30.0116 13.4417V17.0282Z" fill="#0139A4"/>
<path d="M27.2251 37.7442H23.3694C22.9946 37.7442 22.7268 37.423 22.7268 37.1018V31.5348C21.3881 30.6248 20.5312 29.1259 20.5312 27.52C20.5312 24.8436 22.6733 22.7024 25.3508 22.7024C28.0284 22.7024 30.1704 24.8436 30.1704 27.52C30.1704 29.233 29.3136 30.7318 27.8677 31.6418V37.1018C27.9213 37.423 27.6 37.7442 27.2251 37.7442ZM24.0656 36.4059H26.5825V31.2136C26.5825 30.9459 26.7432 30.7318 26.9574 30.6247C28.1355 30.0359 28.8852 28.8583 28.8852 27.52C28.8852 25.593 27.3322 24.0406 25.4044 24.0406C23.4765 24.0406 21.9236 25.593 21.9236 27.52C21.9236 28.8048 22.6197 29.9824 23.7443 30.5712C23.9585 30.6783 24.1191 30.8924 24.1191 31.16V36.4059H24.0656Z" fill="#0878C9"/>
<path fill-rule="evenodd" clip-rule="evenodd" d="M27.2251 38.2442H23.3694C22.692 38.2442 22.2268 37.672 22.2268 37.1018V31.7917C20.8878 30.7856 20.0312 29.2147 20.0312 27.52C20.0312 24.5672 22.3973 22.2024 25.3508 22.2024C28.3043 22.2024 30.6704 24.5672 30.6704 27.52C30.6704 29.3158 29.8132 30.9 28.3677 31.9099V37.068C28.4061 37.404 28.2574 37.7003 28.0606 37.897C27.8526 38.1049 27.5538 38.2442 27.2251 38.2442ZM27.8677 37.1018V31.6418C29.3136 30.7318 30.1704 29.233 30.1704 27.52C30.1704 24.8436 28.0284 22.7024 25.3508 22.7024C22.6733 22.7024 20.5312 24.8436 20.5312 27.52C20.5312 29.1259 21.3881 30.6248 22.7268 31.5348V37.1018C22.7268 37.423 22.9946 37.7442 23.3694 37.7442H27.2251C27.6 37.7442 27.9213 37.423 27.8677 37.1018ZM26.5825 31.2136C26.5825 30.9459 26.7432 30.7318 26.9574 30.6247C28.1355 30.0359 28.8852 28.8583 28.8852 27.52C28.8852 25.593 27.3322 24.0406 25.4044 24.0406C23.4765 24.0406 21.9236 25.593 21.9236 27.52C21.9236 28.8048 22.6197 29.9824 23.7443 30.5712C23.9585 30.6783 24.1191 30.8924 24.1191 31.16V36.4059H26.5825V31.2136ZM26.0825 35.9059H24.6191V31.16C24.6191 30.679 24.3293 30.3067 23.9728 30.1264C23.0201 29.6259 22.4236 28.6232 22.4236 27.52C22.4236 25.8693 23.7525 24.5406 25.4044 24.5406C27.0563 24.5406 28.3852 25.8693 28.3852 27.52C28.3852 28.6649 27.7461 29.6716 26.7338 30.1775C26.3751 30.3568 26.0825 30.7301 26.0825 31.2136V35.9059Z" fill="#0878C9"/>
</svg>
