<svg width="24" height="24" viewBox="0 0 24 24" fill="none" xmlns="http://www.w3.org/2000/svg">
<path d="M8.72134 5.40856C6.34134 8.08023 4.70801 11.9186 4.55634 12.2802L0.333008 10.4719L5.05801 5.74689C5.60634 5.19856 6.39967 4.95356 7.16967 5.10523L8.72134 5.40856ZM11.0313 17.8336C11.0313 17.8336 15.3947 16.0252 17.903 13.5169C24.203 7.21689 23.153 2.29356 22.8147 1.18523C21.7063 0.835227 16.783 -0.203106 10.483 6.09689C7.97467 8.60523 6.16634 12.9686 6.16634 12.9686L11.0313 17.8336ZM18.5913 15.2786C15.9197 17.6586 12.0813 19.2919 11.7197 19.4436L13.528 23.6669L18.253 18.9419C18.8013 18.3936 19.0463 17.6002 18.8947 16.8302L18.5913 15.2786ZM8.49967 19.0002C8.49967 19.9686 8.10301 20.8436 7.47301 21.4736C6.09634 22.8502 0.333008 23.6669 0.333008 23.6669C0.333008 23.6669 1.14967 17.9036 2.52634 16.5269C3.15634 15.8969 4.03134 15.5002 4.99967 15.5002C6.93634 15.5002 8.49967 17.0636 8.49967 19.0002ZM13.1663 8.50023C13.1663 7.21689 14.2163 6.16689 15.4997 6.16689C16.783 6.16689 17.833 7.21689 17.833 8.50023C17.833 9.78356 16.783 10.8336 15.4997 10.8336C14.2163 10.8336 13.1663 9.78356 13.1663 8.50023Z" fill="white"/>
</svg>
