<svg width="50" height="50" viewBox="0 0 50 50" fill="none" xmlns="http://www.w3.org/2000/svg">
<path d="M24.409 6.10667L24.408 6.10715L9.46834 13.6543C9.46815 13.6544 9.46797 13.6545 9.46779 13.6546C9.18534 13.796 8.97946 14.0714 8.90914 14.3526C8.79543 14.8072 6.5809 25.1269 13.773 34.4784C19.1029 41.4207 24.1698 44.012 24.409 44.1315C24.414 44.134 24.4193 44.1367 24.4248 44.1394C24.5195 44.1871 24.6742 44.2649 24.8421 44.2649H24.846C24.8997 44.2649 24.9739 44.265 25.0652 44.2467C25.1586 44.2281 25.2601 44.1926 25.3823 44.1315L25.3962 44.1246L25.4083 44.1165C25.4071 44.1173 25.4107 44.115 25.4247 44.1069L25.4804 44.0752C25.5276 44.0483 25.5934 44.0107 25.6762 43.9624C25.842 43.8656 26.0753 43.7259 26.3672 43.5399C26.9507 43.1679 27.7675 42.6112 28.7451 41.8428C30.7005 40.3061 33.2994 37.9232 35.9642 34.4791L35.9646 34.4785C43.1289 25.1634 40.9594 14.8875 40.83 14.3583C40.7567 14.0015 40.5342 13.7867 40.27 13.6545C40.2698 13.6545 40.2697 13.6544 40.2695 13.6543L25.3297 6.10715L25.3287 6.10667C25.0441 5.96444 24.6936 5.96444 24.409 6.10667ZM34.2299 33.3168L34.2295 33.3172C30.1133 38.6662 26.0996 41.3272 24.7885 42.1179C23.4775 41.3273 19.4639 38.6663 15.3476 33.3174C9.59091 25.8002 10.4342 17.3635 10.7694 15.3284L24.7355 8.21651L38.8079 15.3289C39.1455 17.3661 40.0375 25.801 34.2299 33.3168Z" fill="#0139A4" stroke="#0139A4" stroke-width="0.5"/>
<path d="M22.8342 31.5481L22.8391 31.5536L22.8443 31.5588C23.04 31.7544 23.3145 31.8996 23.61 31.8996H23.61H23.61H23.6101H23.6101H23.6101H23.6101H23.6101H23.6101H23.6101H23.6101H23.6101H23.6101H23.6101H23.6101H23.6102H23.6102H23.6102H23.6102H23.6102H23.6102H23.6102H23.6102H23.6102H23.6102H23.6103H23.6103H23.6103H23.6103H23.6103H23.6103H23.6103H23.6103H23.6103H23.6103H23.6103H23.6104H23.6104H23.6104H23.6104H23.6104H23.6104H23.6104H23.6104H23.6104H23.6105H23.6105H23.6105H23.6105H23.6105H23.6105H23.6105H23.6106H23.6106H23.6106H23.6106H23.6106H23.6106H23.6106H23.6107H23.6107H23.6107H23.6107H23.6107H23.6107H23.6108H23.6108H23.6108H23.6108H23.6108H23.6109H23.6109H23.6109H23.6109H23.6109H23.611H23.611H23.611H23.611H23.611H23.6111H23.6111H23.6111H23.6111H23.6112H23.6112H23.6112H23.6112H23.6113H23.6113H23.6113H23.6113H23.6114H23.6114H23.6114H23.6114H23.6115H23.6115H23.6115H23.6116H23.6116H23.6116H23.6116H23.6117H23.6117H23.6117H23.6118H23.6118H23.6118H23.6119H23.6119H23.6119H23.612H23.612H23.612H23.6121H23.6121H23.6121H23.6122H23.6122H23.6123H23.6123H23.6123H23.6124H23.6124H23.6125H23.6125H23.6125H23.6126H23.6126H23.6127H23.6127H23.6127H23.6128H23.6128H23.6129H23.6129H23.613H23.613H23.6131H23.6131H23.6131H23.6132H23.6132H23.6133H23.6133H23.6134H23.6134H23.6135H23.6135H23.6136H23.6136H23.6137H23.6137H23.6138H23.6139H23.6139H23.614H23.614H23.6141H23.6141H23.6142H23.6142H23.6143H23.6144H23.6144H23.6145H23.6145H23.6146H23.6147H23.6147H23.6148H23.6148H23.6149H23.615H23.615H23.6151H23.6152H23.6152H23.6153H23.6154H23.6154H23.6155H23.6156H23.6156H23.6157H23.6158H23.6159H23.6159H23.616H23.6161H23.6161H23.6162H23.6163H23.6164H23.6164H23.6165H23.6166H23.6167H23.6168H23.6168H23.6169H23.617H23.6171H23.6172H23.6172H23.6173H23.6174H23.6175H23.6176H23.6177H23.6177H23.6178H23.6179H23.618H23.6181H23.6182H23.6183H23.6184H23.6184H23.6185H23.6186H23.6187H23.6188H23.6189H23.619H23.6191H23.6192H23.6193H23.6194H23.6195H23.6196H23.6197H23.6198H23.6199H23.62H23.6201H23.6202H23.6203H23.6204H23.6205H23.6206H23.6207H23.6208H23.6209H23.6211H23.6212H23.6213H23.6214H23.6215H23.6216H23.6217H23.6218H23.622H23.6221H23.6222H23.6223H23.6224H23.6225H23.6227H23.6228H23.6229H23.623H23.6231H23.6233H23.6234H23.6235H23.6236H23.6238H23.6239H23.624H23.6241H23.6243H23.6244H23.6245H23.6247H23.6248H23.6249H23.6251H23.6252H23.6253H23.6255H23.6256H23.6258H23.6259H23.626H23.6262H23.6263H23.6265H23.6266H23.6267H23.6269H23.627H23.6272H23.6273H23.6275H23.6276H23.6278H23.6279H23.6281H23.6282H23.6284H23.6285H23.6287H23.6288H23.629H23.6292H23.6293H23.6295H23.6296H23.6298H23.63H23.6301H23.6303H23.6304H23.6306H23.6308H23.6309H23.6311H23.6313H23.6315H23.6316H23.6318H23.632H23.6321H23.6323H23.6325H23.6327H23.6328H23.633H23.6332H23.6334H23.6336H23.6337H23.6339H23.6341H23.6343H23.6345H23.6347H23.6349H23.635H23.6352H23.6354H23.6356H23.6358H23.636H23.6362H23.6364H23.6366H23.6368H23.637H23.6372H23.6374H23.6376H23.6378H23.638H23.6382H23.6384H23.6386H23.6388H23.639H23.6392H23.6394H23.6396H23.6399H23.6401H23.6403H23.6405H23.6407H23.6409H23.6411H23.6414H23.6416H23.6418H23.642H23.6422H23.6425H23.6427H23.6429H23.6431H23.6434H23.6436H23.6438H23.6441H23.6443H23.6445H23.6448H23.645H23.6452H23.6455H23.6457H23.646H23.6462H23.6464H23.6467H23.6469H23.6472H23.6474H23.6477H23.6479H23.6482H23.6484H23.6487H23.6489H23.6492H23.6494H23.6497H23.6499H23.6502H23.6505H23.6507H23.651H23.6512H23.6515H23.6518H23.652H23.6523H23.6526H23.6528H23.6531H23.6534H23.6537H23.6539H23.6542H23.6545H23.6548H23.655H23.6553H23.6556H23.6559H23.6562H23.6565H23.6567H23.657H23.6573H23.6576H23.6579H23.6582H23.6585H23.6588H23.6591H23.6594H23.6597H23.66H23.6603H23.6606H23.6609H23.6612H23.6615H23.6618H23.6621H23.6624H23.6627H23.663H23.6633H23.6636H23.6884L23.7126 31.8948C24.0075 31.8358 24.3114 31.7056 24.4709 31.3971L31.9095 19.2544L31.9096 19.2545L31.9133 19.2479C32.1891 18.7654 32.0591 18.1255 31.5525 17.8361C31.0712 17.5612 30.4331 17.6897 30.1426 18.1931L23.412 29.1452L20.4789 25.8654C20.1059 25.4221 19.4642 25.4458 19.0589 25.7835C18.6117 26.1559 18.6344 26.7998 18.9732 27.2062L18.9731 27.2063L18.9784 27.2123L22.8342 31.5481Z" fill="#0878C9" stroke="#0878C9" stroke-width="0.5"/>
</svg>
