<svg width="50" height="50" viewBox="0 0 50 50" fill="none" xmlns="http://www.w3.org/2000/svg">
<path d="M44.9841 39.3529H5.99914C4.98168 39.3529 4.17841 38.657 4.01775 37.64C3.80355 36.4623 3.75 35.2847 3.75 34.107C3.75 28.2723 6.05269 22.7588 10.1761 18.637C14.2995 14.5688 19.7617 12.3206 25.5452 12.3206C25.5988 12.3206 25.6523 12.3206 25.7058 12.3206C37.4335 12.4276 46.9655 21.6347 47.3404 33.4111C47.394 34.8564 47.2869 36.2482 47.0726 37.64C46.8049 38.657 45.9481 39.3529 44.9841 39.3529ZM25.4917 13.7123C20.0295 13.7123 14.9421 15.8 11.0865 19.6541C7.17726 23.5082 5.03523 28.647 5.03523 34.1606C5.03523 35.2847 5.14234 36.4088 5.30299 37.4793C5.35654 37.8005 5.62429 38.0682 5.99914 38.0682H44.9841C45.3055 38.0682 45.6268 37.8005 45.6803 37.4793C45.8945 36.1946 46.0016 34.8564 45.9481 33.5182C45.6268 22.7053 36.5231 13.8194 25.6523 13.7659C25.5452 13.7123 25.4917 13.7123 25.4917 13.7123Z" fill="#0139A4"/>
<path fill-rule="evenodd" clip-rule="evenodd" d="M9.82494 18.2811C14.0415 14.121 19.6297 11.8206 25.5452 11.8206H25.7104C37.7031 11.93 47.4558 21.3473 47.8401 33.3935C47.8949 34.8757 47.7849 36.2993 47.5668 37.716L47.5628 37.7419L47.5562 37.7673C47.2369 38.98 46.199 39.8529 44.9841 39.8529H5.99914C4.73235 39.8529 3.72528 38.9755 3.52483 37.7239C3.30379 36.506 3.25 35.2965 3.25 34.107C3.25 28.1386 5.60611 22.4982 9.82262 18.2834L9.82494 18.2811ZM47.3404 33.4111C46.9655 21.6347 37.4335 12.4276 25.7058 12.3206H25.5452C19.7617 12.3206 14.2995 14.5688 10.1761 18.637C6.05269 22.7588 3.75 28.2723 3.75 34.107C3.75 35.2847 3.80355 36.4623 4.01775 37.64C4.17841 38.657 4.98168 39.3529 5.99914 39.3529H44.9841C45.9481 39.3529 46.8049 38.657 47.0726 37.64C47.2869 36.2482 47.394 34.8564 47.3404 33.4111ZM25.4274 14.2124C20.1209 14.2287 15.1858 16.2634 11.44 20.0077L11.4375 20.0101C7.62419 23.7697 5.53523 28.7801 5.53523 34.1606C5.53523 35.252 5.63912 36.3487 5.79668 37.4C5.80553 37.4492 5.83016 37.4915 5.86269 37.5205C5.89295 37.5473 5.93585 37.5682 5.99914 37.5682H44.9841C45.0087 37.5682 45.0586 37.5555 45.1107 37.5117C45.1625 37.468 45.183 37.4218 45.1871 37.3971C45.3966 36.1407 45.5005 34.8371 45.4485 33.5382L45.4483 33.533C45.135 22.9901 36.2519 14.3181 25.6498 14.2658L25.5332 14.2653L25.4288 14.2131C25.4283 14.2129 25.4279 14.2127 25.4274 14.2124ZM5.30299 37.4793C5.14234 36.4088 5.03523 35.2847 5.03523 34.1606C5.03523 28.647 7.17726 23.5082 11.0865 19.6541C14.9421 15.8 20.0295 13.7123 25.4917 13.7123C25.4917 13.7123 25.5452 13.7123 25.6523 13.7659C36.5231 13.8194 45.6268 22.7053 45.9481 33.5182C46.0016 34.8564 45.8945 36.1946 45.6803 37.4793C45.6268 37.8005 45.3055 38.0682 44.9841 38.0682H5.99914C5.62429 38.0682 5.35654 37.8005 5.30299 37.4793Z" fill="#0139A4"/>
<path d="M23.5647 35.82C23.1899 35.82 22.815 35.7665 22.4937 35.6059C21.744 35.2847 21.155 34.6424 20.9407 33.8394C20.7265 33.0365 20.8872 32.18 21.3691 31.5377L27.5275 22.17C27.7417 21.8489 28.1166 21.7418 28.4379 21.9024C28.7592 22.063 28.9734 22.3841 28.8663 22.7589L26.2423 33.6789C26.0816 34.4818 25.5461 35.1242 24.85 35.5524C24.4216 35.713 23.9931 35.82 23.5647 35.82ZM26.8314 25.6495L22.4937 32.2336C22.226 32.6083 22.1724 33.0365 22.2795 33.4112C22.3866 33.7859 22.6544 34.1606 23.0828 34.3212C23.4576 34.4818 23.8861 34.4818 24.2609 34.2677C24.6358 34.0536 24.9035 33.7324 24.9571 33.3042L26.8314 25.6495Z" fill="#0878C9"/>
<path fill-rule="evenodd" clip-rule="evenodd" d="M27.1115 21.8925C27.4535 21.3797 28.0957 21.1723 28.6614 21.4551C29.1261 21.6873 29.5348 22.2169 29.3502 22.8847L26.7305 33.7867C26.5341 34.7518 25.8942 35.497 25.1119 35.9782L25.0707 36.0035L25.0254 36.0205C24.566 36.1927 24.075 36.32 23.5647 36.32C23.1535 36.32 22.6975 36.263 22.2836 36.0598C21.4083 35.6802 20.7126 34.9242 20.4576 33.9682C20.2067 33.0276 20.39 32.0182 20.9595 31.2505L27.1115 21.8925ZM21.3691 31.5376C20.8872 32.18 20.7265 33.0364 20.9407 33.8394C21.1549 34.6423 21.744 35.2846 22.4937 35.6058C22.815 35.7664 23.1898 35.82 23.5647 35.82C23.9931 35.82 24.4215 35.7129 24.8499 35.5523C25.5461 35.1241 26.0816 34.4817 26.2422 33.6788L28.8663 22.7588C28.9734 22.3841 28.7592 22.0629 28.4379 21.9023C28.1165 21.7417 27.7417 21.8488 27.5275 22.1699L21.3691 31.5376ZM22.906 32.5165L22.9005 32.5242C22.7238 32.7714 22.6938 33.0414 22.7602 33.2737C22.8346 33.5339 23.0117 33.7605 23.2583 33.8529L23.269 33.857L23.2796 33.8615C23.5271 33.9675 23.7892 33.9612 24.0129 33.8334C24.289 33.6757 24.4317 33.4753 24.4609 33.242L24.4645 33.2133L25.6579 28.3393L22.906 32.5165ZM22.4937 32.2335C22.2259 32.6082 22.1724 33.0364 22.2795 33.4111C22.3866 33.7858 22.6543 34.1605 23.0828 34.3211C23.4576 34.4817 23.886 34.4817 24.2609 34.2676C24.6357 34.0535 24.9035 33.7323 24.957 33.3041L26.8313 25.6494L22.4937 32.2335Z" fill="#0878C9"/>
<path d="M7.76562 34.2675C7.76562 33.6252 8.30114 33.0899 8.94375 33.0899C9.58636 33.0899 10.1219 33.6252 10.1219 34.2675C10.1219 34.9099 9.58636 35.4452 8.94375 35.4452C8.24759 35.3917 7.76562 34.9099 7.76562 34.2675ZM40.8065 33.5181C40.7529 32.8758 41.2885 32.3405 41.9311 32.287C42.5737 32.2334 43.1092 32.7687 43.1627 33.4111C43.2163 34.0534 42.6808 34.5887 42.0382 34.6422H41.9846C41.342 34.5887 40.86 34.107 40.8065 33.5181ZM12.7994 23.5081C12.3175 23.0799 12.3175 22.3305 12.7994 21.8487C13.2278 21.367 13.9775 21.367 14.4595 21.8487C14.9414 22.277 14.9414 23.0264 14.4595 23.5081C14.2453 23.7223 13.924 23.8829 13.6027 23.8829C13.3349 23.8829 13.0136 23.7758 12.7994 23.5081ZM35.9334 22.9728C35.4514 22.5446 35.4514 21.7952 35.8798 21.3134C36.3082 20.8317 37.0579 20.8317 37.5399 21.2599C38.0219 21.6881 38.0218 22.4376 37.5934 22.9193C37.3792 23.187 37.0579 23.294 36.7366 23.294C36.4153 23.294 36.1476 23.187 35.9334 22.9728ZM23.8844 17.727C23.8844 17.0846 24.3664 16.5493 25.009 16.5493C25.6516 16.5493 26.1871 17.0311 26.1871 17.6734C26.1871 18.3158 25.7052 18.8511 25.0626 18.8511C25.0626 18.8511 25.0625 18.8511 25.009 18.8511C24.4199 18.8511 23.8844 18.3693 23.8844 17.727Z" fill="#0878C9"/>
<path fill-rule="evenodd" clip-rule="evenodd" d="M8.92455 35.9452L8.90542 35.9437C7.98441 35.8729 7.26562 35.2055 7.26562 34.2675C7.26562 33.3488 8.0252 32.5899 8.94375 32.5899C9.8623 32.5899 10.6219 33.3488 10.6219 34.2675C10.6219 35.1862 9.86231 35.9452 8.94375 35.9452H8.92455ZM40.3085 33.5634L40.3082 33.5597C40.2277 32.5945 41.022 31.861 41.8896 31.7887C42.8546 31.7083 43.5887 32.5018 43.661 33.3695C43.7415 34.3348 42.9472 35.0683 42.0797 35.1405L42.0589 35.1422H41.9638L41.9431 35.1405C41.0697 35.0678 40.3851 34.4051 40.3085 33.5634ZM41.9846 34.6422C41.342 34.5887 40.86 34.107 40.8065 33.5181C40.7529 32.8758 41.2885 32.3405 41.9311 32.287C42.5737 32.2334 43.1092 32.7687 43.1627 33.4111C43.2163 34.0534 42.6808 34.5887 42.0382 34.6422H41.9846ZM12.4357 21.5055C11.7902 22.1613 11.7539 23.2157 12.4364 23.8537C12.7634 24.2388 13.227 24.3829 13.6027 24.3829C14.08 24.3829 14.523 24.1516 14.813 23.8618C15.4746 23.2004 15.5094 22.1242 14.8026 21.4848C14.1403 20.8336 13.0718 20.8028 12.4357 21.5055ZM14.4595 21.8487C13.9775 21.367 13.2278 21.367 12.7994 21.8487C12.3175 22.3305 12.3175 23.0799 12.7994 23.5081C13.0136 23.7758 13.3349 23.8829 13.6027 23.8829C13.924 23.8829 14.2453 23.7223 14.4595 23.5081C14.9414 23.0264 14.9414 22.277 14.4595 21.8487ZM35.5903 23.3368C34.8879 22.7015 34.9205 21.6398 35.5062 20.9812C36.1405 20.2679 37.2099 20.2978 37.872 20.8861C38.5823 21.5172 38.556 22.5793 37.9755 23.242C37.6408 23.6527 37.1594 23.794 36.7366 23.794C36.2966 23.794 35.9028 23.6438 35.5903 23.3368ZM35.9334 22.9728C35.4514 22.5446 35.4514 21.7952 35.8798 21.3134C36.3082 20.8317 37.0579 20.8317 37.5399 21.2599C38.0219 21.6881 38.0218 22.4376 37.5934 22.9193C37.3792 23.187 37.0579 23.294 36.7366 23.294C36.4153 23.294 36.1476 23.187 35.9334 22.9728ZM23.3844 17.727C23.3844 16.8392 24.0605 16.0493 25.009 16.0493C25.8967 16.0493 26.6871 16.7248 26.6871 17.6734C26.6871 18.5612 26.0111 19.3511 25.0626 19.3511H25.009C24.1596 19.3511 23.3844 18.661 23.3844 17.727ZM8.94375 33.0899C8.30114 33.0899 7.76562 33.6252 7.76562 34.2675C7.76562 34.9099 8.24759 35.3917 8.94375 35.4452C9.58636 35.4452 10.1219 34.9099 10.1219 34.2675C10.1219 33.6252 9.58636 33.0899 8.94375 33.0899ZM25.009 16.5493C24.3664 16.5493 23.8844 17.0846 23.8844 17.727C23.8844 18.3693 24.4199 18.8511 25.009 18.8511H25.0626C25.7052 18.8511 26.1871 18.3158 26.1871 17.6734C26.1871 17.0311 25.6516 16.5493 25.009 16.5493Z" fill="#0878C9"/>
</svg>
