<svg width="50" height="50" viewBox="0 0 50 50" fill="none" xmlns="http://www.w3.org/2000/svg">
<path fill-rule="evenodd" clip-rule="evenodd" d="M30.2805 19.1066C30.0404 19.0262 29.8004 18.9458 29.7204 18.7046L25.64 10.4222C25.32 9.85928 24.6 9.85928 24.36 10.4222L20.2795 18.7046C20.1195 18.9458 19.9595 19.1066 19.7195 19.1066L10.5987 20.4736C10.0386 20.5541 9.79861 21.2778 10.1986 21.6798L16.7593 28.1128C16.9993 28.2736 16.9993 28.5148 16.9993 28.7561L15.4791 37.923C15.3991 38.4859 15.9591 38.888 16.5192 38.6468L24.68 34.3045C24.84 34.2241 25.08 34.2241 25.32 34.3045L33.4808 38.6468C34.0408 38.9684 34.6008 38.4859 34.5208 37.923L33.0007 28.7561C33.0007 28.5148 33.0807 28.2736 33.2407 28.1128L39.8014 21.6798C40.2014 21.2778 39.9614 20.5541 39.4013 20.4736L30.2805 19.1066ZM35.4817 22.4141L29.6936 21.5466L29.4863 21.4771C29.4822 21.4758 29.4764 21.4739 29.4692 21.4715C29.3718 21.4399 29.0028 21.3199 28.6494 21.1068C28.2321 20.8551 27.7295 20.4176 27.4331 19.7188L25 14.7799L22.4514 19.9531L22.3629 20.0865C22.1634 20.3872 21.4237 21.4804 19.9727 21.5966L14.5183 22.4141L18.4044 26.2246C19.5708 27.188 19.5068 28.5883 19.4998 28.7432C19.4995 28.7498 19.4993 28.7541 19.4993 28.7561V28.9619L18.5413 34.739L23.5314 32.0838L23.5574 32.0707C24.5225 31.5857 25.5069 31.7306 26.1142 31.934L26.311 31.9999L31.4587 34.739L30.5007 28.9619V28.7561C30.5007 28.0222 30.7358 27.0859 31.4685 26.3495L31.4794 26.3385L35.4817 22.4141Z" fill="#0139A4"/>
</svg>
