<svg width="262" height="24" viewBox="0 0 262 24" fill="none" xmlns="http://www.w3.org/2000/svg">
<path d="M22.9277 18.1654V0.958663H31.0149C32.1784 0.958663 33.1944 1.15531 34.0629 1.54861C34.9315 1.94191 35.6116 2.49908 36.1032 3.22013C36.5948 3.92479 36.8406 4.74415 36.8406 5.67824C36.8406 6.43206 36.644 7.12852 36.2507 7.76763C35.8738 8.39035 35.3576 8.89836 34.7021 9.29166C35.5378 9.68496 36.2015 10.2175 36.6931 10.8894C37.1848 11.5613 37.4306 12.3233 37.4306 13.1755C37.4306 14.1587 37.1766 15.0273 36.6685 15.7811C36.1769 16.5349 35.4723 17.1248 34.5546 17.5509C33.6533 17.9606 32.6045 18.1654 31.4082 18.1654H22.9277ZM26.492 7.98886H30.7937C31.5639 7.98886 32.1702 7.8086 32.6127 7.44808C33.0715 7.07117 33.3009 6.57135 33.3009 5.94863C33.3009 5.32591 33.0715 4.83428 32.6127 4.47376C32.1702 4.09685 31.5639 3.9084 30.7937 3.9084H26.492V7.98886ZM26.492 15.2157H31.1378C31.9572 15.2157 32.6127 15.0191 33.1043 14.6258C33.5959 14.2161 33.8417 13.6753 33.8417 13.0034C33.8417 12.3151 33.5959 11.7744 33.1043 11.3811C32.6127 10.9714 31.9572 10.7665 31.1378 10.7665H26.492V15.2157Z" fill="#0139A4"/>
<path d="M45.976 18.4113C44.6977 18.4113 43.5342 18.1163 42.4854 17.5263C41.453 16.9364 40.6337 16.1416 40.0273 15.142C39.421 14.1423 39.1178 13.0198 39.1178 11.7744C39.1178 10.5289 39.4046 9.40637 39.9782 8.40674C40.5681 7.40711 41.3629 6.61232 42.3625 6.02237C43.3622 5.43243 44.4765 5.13745 45.7056 5.13745C46.9346 5.13745 48.0244 5.44062 48.9748 6.04695C49.9253 6.65329 50.6709 7.47266 51.2117 8.50506C51.7689 9.53747 52.0475 10.7092 52.0475 12.0202V12.9051H42.5592C42.7067 13.4131 42.9443 13.8719 43.272 14.2816C43.6162 14.6913 44.034 15.0109 44.5257 15.2403C45.0337 15.4697 45.5745 15.5844 46.148 15.5844C46.7216 15.5844 47.246 15.4943 47.7212 15.314C48.2128 15.1338 48.6307 14.8798 48.9748 14.552L51.1871 16.5677C50.4006 17.2068 49.5894 17.6738 48.7536 17.9688C47.9342 18.2638 47.0084 18.4113 45.976 18.4113ZM42.51 10.4961H48.729C48.6143 9.98812 48.4013 9.54566 48.0899 9.16875C47.795 8.77546 47.4344 8.47229 47.0084 8.25925C46.5987 8.02983 46.1398 7.91512 45.6318 7.91512C45.1074 7.91512 44.6322 8.02164 44.2061 8.23467C43.78 8.44771 43.4195 8.75088 43.1245 9.14417C42.846 9.52108 42.6411 9.97174 42.51 10.4961Z" fill="#0139A4"/>
<path d="M59.2699 18.4113C58.09 18.4113 57.0003 18.2638 56.0006 17.9688C55.001 17.6574 54.1325 17.215 53.395 16.6414L55.0665 14.4045C55.804 14.8962 56.5086 15.2649 57.1805 15.5107C57.8688 15.7565 58.5489 15.8794 59.2208 15.8794C59.9746 15.8794 60.5727 15.7565 61.0152 15.5107C61.474 15.2485 61.7034 14.9125 61.7034 14.5029C61.7034 14.1751 61.5723 13.9129 61.3102 13.7163C61.0643 13.5196 60.6628 13.3803 60.1057 13.2984L57.6476 12.9297C56.3693 12.733 55.4025 12.3233 54.747 11.7006C54.0915 11.0615 53.7637 10.2257 53.7637 9.19334C53.7637 8.35758 53.9768 7.64473 54.4029 7.05478C54.8453 6.44844 55.4598 5.9814 56.2464 5.65366C57.0494 5.30952 57.9999 5.13745 59.0979 5.13745C60.0319 5.13745 60.9414 5.26855 61.8264 5.53075C62.7277 5.79295 63.5716 6.19444 64.3582 6.73522L62.7359 8.92294C62.0312 8.48048 61.3593 8.16093 60.7202 7.96428C60.0811 7.76763 59.4338 7.66931 58.7783 7.66931C58.172 7.66931 57.6803 7.78402 57.3034 8.01344C56.9429 8.24287 56.7626 8.54603 56.7626 8.92294C56.7626 9.26708 56.8937 9.53747 57.1559 9.73412C57.4181 9.93077 57.8688 10.0701 58.5079 10.152L60.9414 10.5207C62.2196 10.701 63.1947 11.1107 63.8666 11.7498C64.5385 12.3725 64.8744 13.1837 64.8744 14.1833C64.8744 15.0027 64.6286 15.7319 64.137 16.371C63.6454 16.9937 62.9817 17.4936 62.1459 17.8705C61.3101 18.231 60.3515 18.4113 59.2699 18.4113Z" fill="#0139A4"/>
<path d="M72.6284 18.3621C71.2027 18.3621 70.1211 18.0425 69.3837 17.4034C68.6627 16.7479 68.3021 15.7975 68.3021 14.552V8.16093H65.672V5.35868H68.3021V2.08939L71.6697 1.32738V5.35868H75.3323V8.16093H71.6697V13.8637C71.6697 14.4537 71.8008 14.8798 72.063 15.142C72.3252 15.3878 72.7841 15.5107 73.4396 15.5107C73.7673 15.5107 74.0623 15.4943 74.3245 15.4615C74.6031 15.4124 74.9063 15.3304 75.234 15.2157V17.9934C74.8899 18.1081 74.4556 18.1982 73.9312 18.2638C73.4232 18.3293 72.9889 18.3621 72.6284 18.3621Z" fill="#0139A4"/>
<path d="M83.5874 18.4113C82.1944 18.4113 80.8343 18.1572 79.5069 17.6492C78.1795 17.1248 76.9996 16.3874 75.9672 15.4369L78.0074 12.8805C79.0071 13.7654 79.9657 14.4045 80.8834 14.7978C81.8175 15.1911 82.8008 15.3878 83.8332 15.3878C84.5542 15.3878 85.1769 15.3058 85.7013 15.142C86.2257 14.9617 86.6272 14.7077 86.9058 14.38C87.2008 14.0522 87.3483 13.6671 87.3483 13.2246C87.3483 12.6347 87.1352 12.184 86.7092 11.8727C86.2831 11.5449 85.5539 11.2909 84.5214 11.1107L81.1047 10.5207C79.6462 10.2749 78.5318 9.7587 77.7616 8.97211C77.0078 8.18551 76.6309 7.16949 76.6309 5.92405C76.6309 4.85887 76.9013 3.93298 77.4421 3.14638C77.9992 2.35979 78.7777 1.76165 79.7773 1.35196C80.7933 0.925889 81.9978 0.712852 83.3907 0.712852C84.6525 0.712852 85.9062 0.925889 87.1516 1.35196C88.4135 1.77803 89.5278 2.36798 90.4947 3.1218L88.5773 5.77656C86.7747 4.40002 84.9639 3.71175 83.1449 3.71175C82.5058 3.71175 81.9486 3.79369 81.4734 3.95756C80.9981 4.12143 80.6294 4.35086 80.3672 4.64583C80.1214 4.92442 79.9985 5.26036 79.9985 5.65366C79.9985 6.17805 80.187 6.58774 80.5639 6.88271C80.9408 7.1613 81.5717 7.37433 82.4566 7.52182L85.7013 8.0626C87.422 8.34119 88.7084 8.89017 89.5606 9.70954C90.4127 10.5125 90.8388 11.5777 90.8388 12.9051C90.8388 14.0194 90.5438 14.9945 89.9539 15.8302C89.3639 16.6496 88.52 17.2887 87.422 17.7476C86.3404 18.19 85.0622 18.4113 83.5874 18.4113Z" fill="#0139A4"/>
<path d="M97.4144 18.3867C96.4967 18.3867 95.6856 18.2228 94.9809 17.895C94.2762 17.5509 93.7273 17.0839 93.334 16.4939C92.9407 15.904 92.744 15.2239 92.744 14.4537C92.744 13.2246 93.2029 12.2742 94.1206 11.6023C95.0546 10.914 96.3328 10.5699 97.9552 10.5699C99.0695 10.5699 100.118 10.7419 101.102 11.0861V10.152C101.102 9.41457 100.872 8.85739 100.413 8.48048C99.9545 8.10357 99.2826 7.91512 98.3977 7.91512C97.8569 7.91512 97.2751 8.00525 96.6524 8.18551C96.0297 8.34938 95.3086 8.61158 94.4893 8.97211L93.2602 6.48941C94.2762 6.03057 95.2431 5.68643 96.1608 5.45701C97.0949 5.22758 98.0289 5.11287 98.963 5.11287C100.684 5.11287 102.019 5.53075 102.97 6.36651C103.937 7.18588 104.42 8.34938 104.42 9.85702V18.1654H101.102V17.2559C100.577 17.6492 100.012 17.936 99.4055 18.1163C98.7992 18.2965 98.1355 18.3867 97.4144 18.3867ZM95.9396 14.38C95.9396 14.8716 96.1526 15.2649 96.5787 15.5598C97.0047 15.8384 97.5701 15.9777 98.2748 15.9777C98.8319 15.9777 99.3481 15.9122 99.8234 15.7811C100.299 15.6336 100.725 15.4205 101.102 15.142V13.2738C100.692 13.1099 100.266 12.987 99.8234 12.9051C99.3809 12.8231 98.9057 12.7822 98.3977 12.7822C97.6275 12.7822 97.0211 12.9297 96.5787 13.2246C96.1526 13.5032 95.9396 13.8883 95.9396 14.38Z" fill="#0139A4"/>
<path d="M112.926 18.3621C111.5 18.3621 110.419 18.0425 109.681 17.4034C108.96 16.7479 108.6 15.7975 108.6 14.552V8.16093H105.97V5.35868H108.6V2.08939L111.967 1.32738V5.35868H115.63V8.16093H111.967V13.8637C111.967 14.4537 112.098 14.8798 112.361 15.142C112.623 15.3878 113.082 15.5107 113.737 15.5107C114.065 15.5107 114.36 15.4943 114.622 15.4615C114.901 15.4124 115.204 15.3304 115.532 15.2157V17.9934C115.188 18.1081 114.753 18.1982 114.229 18.2638C113.721 18.3293 113.287 18.3621 112.926 18.3621Z" fill="#0139A4"/>
<path d="M123.643 18.4113C122.364 18.4113 121.201 18.1163 120.152 17.5263C119.12 16.9364 118.3 16.1416 117.694 15.142C117.088 14.1423 116.785 13.0198 116.785 11.7744C116.785 10.5289 117.071 9.40637 117.645 8.40674C118.235 7.40711 119.03 6.61232 120.029 6.02237C121.029 5.43243 122.143 5.13745 123.372 5.13745C124.601 5.13745 125.691 5.44062 126.642 6.04695C127.592 6.65329 128.338 7.47266 128.878 8.50506C129.436 9.53747 129.714 10.7092 129.714 12.0202V12.9051H120.226C120.373 13.4131 120.611 13.8719 120.939 14.2816C121.283 14.6913 121.701 15.0109 122.192 15.2403C122.7 15.4697 123.241 15.5844 123.815 15.5844C124.388 15.5844 124.913 15.4943 125.388 15.314C125.88 15.1338 126.297 14.8798 126.642 14.552L128.854 16.5677C128.067 17.2068 127.256 17.6738 126.42 17.9688C125.601 18.2638 124.675 18.4113 123.643 18.4113ZM120.177 10.4961H126.396C126.281 9.98812 126.068 9.54566 125.757 9.16875C125.462 8.77546 125.101 8.47229 124.675 8.25925C124.265 8.02983 123.807 7.91512 123.299 7.91512C122.774 7.91512 122.299 8.02164 121.873 8.23467C121.447 8.44771 121.086 8.75088 120.791 9.14417C120.513 9.52108 120.308 9.97174 120.177 10.4961Z" fill="#0139A4"/>
<path d="M132.023 18.1654V0.958663L135.391 0.393297V18.1654H132.023Z" fill="#0139A4"/>
<path d="M138.27 18.1654V0.958663L141.638 0.393297V18.1654H138.27Z" fill="#0139A4"/>
<path d="M144.517 18.1654V5.35868H147.885V18.1654H144.517ZM146.189 3.83465C145.665 3.83465 145.214 3.6462 144.837 3.26929C144.46 2.89238 144.272 2.44172 144.272 1.91733C144.272 1.37654 144.46 0.925889 144.837 0.565366C145.214 0.188455 145.665 0 146.189 0C146.73 0 147.18 0.188455 147.541 0.565366C147.918 0.925889 148.106 1.37654 148.106 1.91733C148.106 2.44172 147.918 2.89238 147.541 3.26929C147.18 3.6462 146.73 3.83465 146.189 3.83465Z" fill="#0139A4"/>
<path d="M156.836 18.3621C155.41 18.3621 154.329 18.0425 153.591 17.4034C152.87 16.7479 152.51 15.7975 152.51 14.552V8.16093H149.88V5.35868H152.51V2.08939L155.877 1.32738V5.35868H159.54V8.16093H155.877V13.8637C155.877 14.4537 156.008 14.8798 156.271 15.142C156.533 15.3878 156.992 15.5107 157.647 15.5107C157.975 15.5107 158.27 15.4943 158.532 15.4615C158.811 15.4124 159.114 15.3304 159.442 15.2157V17.9934C159.097 18.1081 158.663 18.1982 158.139 18.2638C157.631 18.3293 157.197 18.3621 156.836 18.3621Z" fill="#0139A4"/>
<path d="M167.553 18.4113C166.274 18.4113 165.111 18.1163 164.062 17.5263C163.03 16.9364 162.21 16.1416 161.604 15.142C160.998 14.1423 160.694 13.0198 160.694 11.7744C160.694 10.5289 160.981 9.40637 161.555 8.40674C162.145 7.40711 162.94 6.61232 163.939 6.02237C164.939 5.43243 166.053 5.13745 167.282 5.13745C168.511 5.13745 169.601 5.44062 170.551 6.04695C171.502 6.65329 172.248 7.47266 172.788 8.50506C173.346 9.53747 173.624 10.7092 173.624 12.0202V12.9051H164.136C164.283 13.4131 164.521 13.8719 164.849 14.2816C165.193 14.6913 165.611 15.0109 166.102 15.2403C166.61 15.4697 167.151 15.5844 167.725 15.5844C168.298 15.5844 168.823 15.4943 169.298 15.314C169.789 15.1338 170.207 14.8798 170.551 14.552L172.764 16.5677C171.977 17.2068 171.166 17.6738 170.33 17.9688C169.511 18.2638 168.585 18.4113 167.553 18.4113ZM164.087 10.4961H170.306C170.191 9.98812 169.978 9.54566 169.667 9.16875C169.372 8.77546 169.011 8.47229 168.585 8.25925C168.175 8.02983 167.716 7.91512 167.208 7.91512C166.684 7.91512 166.209 8.02164 165.783 8.23467C165.357 8.44771 164.996 8.75088 164.701 9.14417C164.423 9.52108 164.218 9.97174 164.087 10.4961Z" fill="#0139A4"/>
<path d="M184.561 18.4358C183.316 18.4358 182.152 18.2146 181.071 17.7721C180.005 17.3133 179.063 16.6824 178.244 15.8794C177.441 15.06 176.81 14.1178 176.351 13.0526C175.909 11.971 175.687 10.8075 175.687 9.56205C175.687 8.31661 175.909 7.1613 176.351 6.09612C176.81 5.01455 177.441 4.07227 178.244 3.26929C179.063 2.44992 180.005 1.819 181.071 1.37654C182.152 0.917695 183.316 0.688271 184.561 0.688271C185.79 0.688271 186.937 0.917695 188.003 1.37654C189.084 1.819 190.026 2.44992 190.829 3.26929C191.649 4.07227 192.28 5.01455 192.722 6.09612C193.181 7.1613 193.41 8.31661 193.41 9.56205C193.41 10.8075 193.181 11.971 192.722 13.0526C192.28 14.1178 191.649 15.06 190.829 15.8794C190.026 16.6824 189.084 17.3133 188.003 17.7721C186.937 18.2146 185.79 18.4358 184.561 18.4358ZM184.561 16.6906C185.544 16.6906 186.454 16.5103 187.29 16.1498C188.125 15.7893 188.855 15.2895 189.477 14.6503C190.117 13.9948 190.608 13.2328 190.952 12.3643C191.313 11.4958 191.493 10.5617 191.493 9.56205C191.493 8.54603 191.313 7.61195 190.952 6.75981C190.608 5.89127 190.117 5.13745 189.477 4.49834C188.855 3.84285 188.125 3.33484 187.29 2.97431C186.454 2.61379 185.544 2.43353 184.561 2.43353C183.578 2.43353 182.66 2.61379 181.808 2.97431C180.972 3.33484 180.235 3.84285 179.596 4.49834C178.973 5.13745 178.481 5.89127 178.121 6.75981C177.777 7.61195 177.605 8.53784 177.605 9.53747C177.605 10.5535 177.777 11.4958 178.121 12.3643C178.481 13.2328 178.973 13.9948 179.596 14.6503C180.235 15.2895 180.972 15.7893 181.808 16.1498C182.66 16.5103 183.578 16.6906 184.561 16.6906Z" fill="#0139A4"/>
<path d="M196.276 23.18V5.8503H198.071V7.17768C199.136 6.16167 200.463 5.65366 202.053 5.65366C203.216 5.65366 204.265 5.94043 205.199 6.51399C206.133 7.07117 206.871 7.82499 207.412 8.77546C207.969 9.72593 208.247 10.7993 208.247 11.9956C208.247 13.1919 207.969 14.2734 207.412 15.2403C206.871 16.1908 206.133 16.9528 205.199 17.5263C204.265 18.0835 203.208 18.3621 202.028 18.3621C201.307 18.3621 200.611 18.2392 199.939 17.9934C199.267 17.7476 198.653 17.3952 198.095 16.9364V23.18H196.276ZM201.881 16.7643C202.749 16.7643 203.528 16.5595 204.216 16.1498C204.904 15.7237 205.445 15.1584 205.838 14.4537C206.248 13.7326 206.453 12.9215 206.453 12.0202C206.453 11.1189 206.248 10.3077 205.838 9.58663C205.445 8.86559 204.904 8.30022 204.216 7.89054C203.528 7.46446 202.749 7.25143 201.881 7.25143C201.111 7.25143 200.39 7.40711 199.718 7.71847C199.062 8.01344 198.521 8.43132 198.095 8.97211V15.0682C198.521 15.5926 199.07 16.0105 199.742 16.3219C200.414 16.6168 201.127 16.7643 201.881 16.7643Z" fill="#0139A4"/>
<path d="M215 18.4113C213.934 18.4113 213.115 18.1572 212.541 17.6492C211.968 17.1412 211.681 16.4038 211.681 15.4369V7.39891H209.026V5.8503H211.681V2.7285L213.475 2.26146V5.8503H217.187V7.39891H213.475V14.9699C213.475 15.6254 213.623 16.1006 213.918 16.3956C214.213 16.6742 214.696 16.8135 215.368 16.8135C215.712 16.8135 216.016 16.7889 216.278 16.7397C216.556 16.6906 216.851 16.6086 217.163 16.4939V18.0917C216.851 18.2064 216.499 18.2883 216.106 18.3375C215.729 18.3867 215.36 18.4113 215 18.4113Z" fill="#0139A4"/>
<path d="M219.381 18.1654V5.8503H221.2V18.1654H219.381ZM220.29 3.49052C219.962 3.49052 219.676 3.36761 219.43 3.1218C219.184 2.87599 219.061 2.58921 219.061 2.26146C219.061 1.91733 219.184 1.63055 219.43 1.40112C219.676 1.15531 219.962 1.03241 220.29 1.03241C220.634 1.03241 220.921 1.15531 221.151 1.40112C221.396 1.63055 221.519 1.91733 221.519 2.26146C221.519 2.58921 221.396 2.87599 221.151 3.1218C220.921 3.36761 220.634 3.49052 220.29 3.49052Z" fill="#0139A4"/>
<path d="M230.275 18.4113C229.111 18.4113 228.046 18.1327 227.079 17.5755C226.129 17.0019 225.375 16.2317 224.818 15.2649C224.261 14.298 223.982 13.2164 223.982 12.0202C223.982 10.8239 224.261 9.74231 224.818 8.77546C225.375 7.8086 226.129 7.04659 227.079 6.48941C228.046 5.91585 229.111 5.62907 230.275 5.62907C231.455 5.62907 232.52 5.91585 233.47 6.48941C234.421 7.04659 235.175 7.8086 235.732 8.77546C236.289 9.74231 236.568 10.8239 236.568 12.0202C236.568 13.2164 236.289 14.298 235.732 15.2649C235.175 16.2317 234.421 17.0019 233.47 17.5755C232.52 18.1327 231.455 18.4113 230.275 18.4113ZM230.275 16.7889C231.111 16.7889 231.865 16.5759 232.536 16.1498C233.225 15.7237 233.765 15.1502 234.159 14.4291C234.568 13.7081 234.773 12.9051 234.773 12.0202C234.773 11.1189 234.568 10.3159 234.159 9.61121C233.765 8.89017 233.225 8.31661 232.536 7.89054C231.865 7.46446 231.111 7.25143 230.275 7.25143C229.439 7.25143 228.677 7.46446 227.989 7.89054C227.317 8.31661 226.776 8.89017 226.367 9.61121C225.973 10.3159 225.777 11.1189 225.777 12.0202C225.777 12.9051 225.973 13.7081 226.367 14.4291C226.776 15.1502 227.317 15.7237 227.989 16.1498C228.677 16.5759 229.439 16.7889 230.275 16.7889Z" fill="#0139A4"/>
<path d="M239.34 18.1654V5.8503H241.159V7.30059C242.126 6.16986 243.421 5.60449 245.043 5.60449C245.977 5.60449 246.797 5.80934 247.501 6.21902C248.222 6.61232 248.78 7.16949 249.173 7.89054C249.583 8.59519 249.787 9.42276 249.787 10.3732V18.1654H247.993V10.7419C247.993 9.64399 247.682 8.78365 247.059 8.16093C246.453 7.52182 245.617 7.20227 244.552 7.20227C243.814 7.20227 243.159 7.36614 242.585 7.69389C242.012 8.02164 241.536 8.48868 241.159 9.09501V18.1654H239.34Z" fill="#0139A4"/>
<path d="M257.01 18.4113C255.994 18.4113 255.035 18.2474 254.134 17.9196C253.249 17.5755 252.479 17.1003 251.823 16.4939L252.93 15.314C253.503 15.8384 254.134 16.2481 254.822 16.5431C255.511 16.8217 256.215 16.961 256.936 16.961C257.919 16.961 258.722 16.7561 259.345 16.3464C259.968 15.9368 260.279 15.4042 260.279 14.7487C260.279 14.2079 260.091 13.79 259.714 13.495C259.353 13.1837 258.78 12.9706 257.993 12.8559L255.855 12.5609C254.626 12.3807 253.708 12.012 253.102 11.4548C252.512 10.8976 252.217 10.1438 252.217 9.19334C252.217 8.50506 252.413 7.89054 252.807 7.34975C253.2 6.80897 253.741 6.3829 254.429 6.07154C255.134 5.76017 255.937 5.60449 256.838 5.60449C257.739 5.60449 258.583 5.73559 259.37 5.99779C260.156 6.25999 260.927 6.66967 261.68 7.22685L260.722 8.4559C260.033 7.98067 259.362 7.63653 258.706 7.4235C258.067 7.19407 257.411 7.07936 256.74 7.07936C255.887 7.07936 255.199 7.26782 254.675 7.64473C254.15 8.02164 253.888 8.51326 253.888 9.11959C253.888 9.67676 254.068 10.1028 254.429 10.3978C254.789 10.6764 255.371 10.873 256.174 10.9878L258.313 11.2827C259.542 11.4466 260.46 11.8071 261.066 12.3643C261.689 12.9215 262 13.6835 262 14.6503C262 15.355 261.779 15.9941 261.336 16.5677C260.894 17.1412 260.296 17.5919 259.542 17.9196C258.804 18.2474 257.96 18.4113 257.01 18.4113Z" fill="#0139A4"/>
<path fill-rule="evenodd" clip-rule="evenodd" d="M16.5994 2.39126C8.23625 2.39126 1.50933 9.20334 1.50933 17.4813C1.50933 17.8207 1.2342 18.0959 0.894801 18.0959C0.555407 18.0959 0.280273 17.8207 0.280273 17.4813C0.280273 8.52913 7.55289 1.1622 16.5994 1.1622C16.9388 1.1622 17.2139 1.43733 17.2139 1.77673C17.2139 2.11612 16.9388 2.39126 16.5994 2.39126Z" fill="#0139A4"/>
<path fill-rule="evenodd" clip-rule="evenodd" d="M0 17.4815C0 8.37546 7.39711 0.881927 16.5995 0.881927C17.0938 0.881927 17.4945 1.28261 17.4945 1.77687C17.4945 2.27113 17.0938 2.67181 16.5995 2.67181C8.39228 2.67181 1.78988 9.35732 1.78988 17.4815C1.78988 17.9757 1.3892 18.3764 0.894942 18.3764C0.400679 18.3764 0 17.9757 0 17.4815ZM16.5995 1.44276C7.70895 1.44276 0.560828 8.68308 0.560828 17.4815C0.560828 17.666 0.710416 17.8156 0.894942 17.8156C1.07947 17.8156 1.22906 17.666 1.22906 17.4815C1.22906 9.04965 8.08049 2.11098 16.5995 2.11098C16.7841 2.11098 16.9337 1.9614 16.9337 1.77687C16.9337 1.59234 16.7841 1.44276 16.5995 1.44276Z" fill="#0139A4"/>
<path fill-rule="evenodd" clip-rule="evenodd" d="M16.3092 6.48794C10.2197 6.48794 5.31597 11.3916 5.31597 17.4812C5.31597 17.8205 5.04084 18.0957 4.70144 18.0957C4.36205 18.0957 4.08691 17.8205 4.08691 17.4812C4.08691 10.7129 9.54089 5.25888 16.3092 5.25888C16.6486 5.25888 16.9237 5.53401 16.9237 5.87341C16.9237 6.2128 16.6486 6.48794 16.3092 6.48794Z" fill="#0139A4"/>
<path fill-rule="evenodd" clip-rule="evenodd" d="M3.80664 17.4823C3.80664 10.5591 9.38616 4.97958 16.3093 4.97958C16.8036 4.97958 17.2043 5.38026 17.2043 5.87453C17.2043 6.36879 16.8036 6.76947 16.3093 6.76947C10.3747 6.76947 5.59652 11.5476 5.59652 17.4823C5.59652 17.9765 5.19585 18.3772 4.70158 18.3772C4.20732 18.3772 3.80664 17.9765 3.80664 17.4823ZM16.3093 5.54041C9.6959 5.54041 4.36747 10.8688 4.36747 17.4823C4.36747 17.6668 4.51706 17.8164 4.70158 17.8164C4.88611 17.8164 5.0357 17.6668 5.0357 17.4823C5.0357 11.2379 10.065 6.20864 16.3093 6.20864C16.4939 6.20864 16.6434 6.05905 16.6434 5.87453C16.6434 5.69 16.4939 5.54041 16.3093 5.54041Z" fill="#0139A4"/>
<path fill-rule="evenodd" clip-rule="evenodd" d="M8.13281 17.4816C8.13281 12.8099 11.9279 9.01474 16.5996 9.01474C16.939 9.01474 17.2142 9.28987 17.2142 9.62927V17.4816C17.2142 17.821 16.939 18.0961 16.5996 18.0961H8.74734C8.40795 18.0961 8.13281 17.821 8.13281 17.4816ZM9.38767 16.867H15.9851V10.2696C12.4817 10.5651 9.68318 13.3636 9.38767 16.867Z" fill="#0139A4"/>
<path fill-rule="evenodd" clip-rule="evenodd" d="M7.85254 17.4817C7.85254 12.6551 11.7732 8.73447 16.5998 8.73447C17.094 8.73447 17.4947 9.13515 17.4947 9.62941V17.4817C17.4947 17.976 17.094 18.3767 16.5998 18.3767H8.74748C8.25322 18.3767 7.85254 17.976 7.85254 17.4817ZM16.5998 9.29529C12.083 9.29529 8.41337 12.9649 8.41337 17.4817C8.41337 17.6662 8.56295 17.8158 8.74748 17.8158H16.5998C16.7843 17.8158 16.9339 17.6662 16.9339 17.4817V9.62941C16.9339 9.44488 16.7843 9.29529 16.5998 9.29529ZM16.175 10.0633C16.2328 10.1164 16.2657 10.1913 16.2657 10.2697V16.8672C16.2657 17.0221 16.1401 17.1476 15.9853 17.1476H9.38782C9.30935 17.1476 9.23447 17.1147 9.18137 17.057C9.12827 16.9992 9.1018 16.9218 9.10839 16.8436C9.41539 13.2039 12.322 10.2973 15.9617 9.99032C16.0399 9.98373 16.1173 10.0102 16.175 10.0633ZM9.69961 16.5868H15.7048V10.5815C12.5816 10.9838 10.1018 13.4635 9.69961 16.5868Z" fill="#0139A4"/>
<path d="M18.358 16.1161C18.358 17.6334 17.1441 18.8473 15.6267 18.8473C14.1094 18.8473 12.8955 17.6334 12.8955 16.1161C12.8955 15.2057 13.3001 14.3964 14.0082 13.8906C14.514 13.5872 15.0198 13.3849 15.6267 13.3849C17.1441 13.3849 18.358 14.5987 18.358 16.1161Z" fill="#0139A4"/>
</svg>
