<svg width="246" height="22" viewBox="0 0 246 22" fill="none" xmlns="http://www.w3.org/2000/svg">
<path d="M21.2871 16.5493V0.873373H28.8886C29.9822 0.873373 30.9372 1.05253 31.7535 1.41083C32.5699 1.76914 33.2091 2.27674 33.6712 2.93364C34.1333 3.57561 34.3644 4.32208 34.3644 5.17306C34.3644 5.85982 34.1795 6.49432 33.8099 7.07657C33.4556 7.64389 32.9704 8.1067 32.3543 8.46501C33.1398 8.82332 33.7636 9.30852 34.2257 9.92063C34.6878 10.5327 34.9189 11.227 34.9189 12.0033C34.9189 12.8991 34.6801 13.6903 34.2026 14.3771C33.7405 15.0638 33.0782 15.6013 32.2156 15.9895C31.3685 16.3627 30.3827 16.5493 29.2582 16.5493H21.2871ZM24.6373 7.27811H28.6806C29.4046 7.27811 29.9745 7.11389 30.3904 6.78544C30.8216 6.44206 31.0373 5.98672 31.0373 5.4194C31.0373 4.85208 30.8216 4.40419 30.3904 4.07574C29.9745 3.73237 29.4046 3.56068 28.6806 3.56068H24.6373V7.27811ZM24.6373 13.862H29.0041C29.7742 13.862 30.3904 13.6829 30.8525 13.3245C31.3146 12.9513 31.5456 12.4586 31.5456 11.8465C31.5456 11.2195 31.3146 10.7268 30.8525 10.3685C30.3904 9.99528 29.7742 9.80866 29.0041 9.80866H24.6373V13.862Z" fill="white"/>
<path d="M42.951 16.7733C41.7496 16.7733 40.6559 16.5045 39.6701 15.9671C38.6998 15.4296 37.9296 14.7055 37.3597 13.7948C36.7898 12.8841 36.5048 11.8615 36.5048 10.7268C36.5048 9.59218 36.7744 8.56951 37.3135 7.65882C37.868 6.74812 38.615 6.02404 39.5546 5.48658C40.4942 4.94912 41.5416 4.68039 42.6969 4.68039C43.8521 4.68039 44.8764 4.95658 45.7698 5.50897C46.6632 6.06136 47.364 6.80784 47.8723 7.74839C48.396 8.68895 48.6579 9.75641 48.6579 10.9508V11.757H39.7395C39.8781 12.2198 40.1014 12.6378 40.4095 13.011C40.733 13.3843 41.1257 13.6754 41.5878 13.8844C42.0653 14.0934 42.5736 14.1979 43.1127 14.1979C43.6519 14.1979 44.1448 14.1158 44.5914 13.9516C45.0535 13.7874 45.4463 13.556 45.7698 13.2574L47.8492 15.0937C47.1099 15.6759 46.3474 16.1014 45.5618 16.3702C44.7917 16.6389 43.9214 16.7733 42.951 16.7733ZM39.6933 9.56232H45.5387C45.4309 9.09951 45.2307 8.69641 44.938 8.35304C44.6608 7.99473 44.3219 7.71853 43.9214 7.52445C43.5363 7.31544 43.105 7.21093 42.6275 7.21093C42.1346 7.21093 41.688 7.30797 41.2875 7.50206C40.887 7.69614 40.5481 7.97234 40.2709 8.33064C40.009 8.67402 39.8165 9.08458 39.6933 9.56232Z" fill="white"/>
<path d="M55.4465 16.7733C54.3375 16.7733 53.3132 16.6389 52.3736 16.3702C51.434 16.0865 50.6176 15.6834 49.9245 15.1609L51.4956 13.123C52.1887 13.5709 52.8511 13.9068 53.4826 14.1307C54.1295 14.3547 54.7688 14.4667 55.4003 14.4667C56.1088 14.4667 56.6711 14.3547 57.0869 14.1307C57.5182 13.8919 57.7339 13.5858 57.7339 13.2126C57.7339 12.914 57.6106 12.6751 57.3642 12.496C57.1331 12.3168 56.7558 12.1899 56.2321 12.1153L53.9216 11.7794C52.7202 11.6002 51.8114 11.227 51.1952 10.6596C50.5791 10.0774 50.2711 9.31599 50.2711 8.37543C50.2711 7.61403 50.4713 6.9646 50.8718 6.42714C51.2877 5.87475 51.8653 5.44926 52.6046 5.15067C53.3594 4.83715 54.2528 4.68039 55.2848 4.68039C56.1628 4.68039 57.0176 4.79982 57.8494 5.0387C58.6966 5.27757 59.4898 5.64334 60.2292 6.13601L58.7043 8.1291C58.0419 7.726 57.4104 7.43487 56.8097 7.25572C56.209 7.07657 55.6005 6.98699 54.9844 6.98699C54.4145 6.98699 53.9524 7.0915 53.5981 7.30051C53.2593 7.50952 53.0898 7.78572 53.0898 8.1291C53.0898 8.44261 53.2131 8.68895 53.4595 8.8681C53.706 9.04726 54.1295 9.17416 54.7303 9.24881L57.0176 9.58472C58.2191 9.74894 59.1356 10.1222 59.7671 10.7044C60.3986 11.2717 60.7144 12.0108 60.7144 12.9215C60.7144 13.6679 60.4833 14.3323 60.0212 14.9145C59.5591 15.4819 58.9353 15.9372 58.1498 16.2806C57.3642 16.609 56.4631 16.7733 55.4465 16.7733Z" fill="white"/>
<path d="M68.0027 16.7285C66.6626 16.7285 65.646 16.4373 64.9528 15.8551C64.2751 15.2579 63.9362 14.392 63.9362 13.2574V7.43488H61.464V4.88194H63.9362V1.90351L67.1016 1.20929V4.88194H70.5442V7.43488H67.1016V12.6303C67.1016 13.1678 67.2248 13.556 67.4712 13.7948C67.7177 14.0188 68.149 14.1307 68.7651 14.1307C69.0732 14.1307 69.3504 14.1158 69.5969 14.086C69.8587 14.0412 70.1437 13.9665 70.4517 13.862V16.3926C70.1283 16.4971 69.7201 16.5792 69.2272 16.6389C68.7497 16.6986 68.3415 16.7285 68.0027 16.7285Z" fill="white"/>
<path d="M78.3034 16.7733C76.9941 16.7733 75.7156 16.5418 74.468 16.079C73.2203 15.6013 72.1113 14.9295 71.1409 14.0636L73.0586 11.7346C73.9982 12.5408 74.8993 13.123 75.7619 13.4813C76.6398 13.8396 77.564 14.0188 78.5344 14.0188C79.2122 14.0188 79.7975 13.9441 80.2904 13.7948C80.7833 13.6306 81.1607 13.3992 81.4225 13.1006C81.6998 12.802 81.8384 12.4512 81.8384 12.0481C81.8384 11.5106 81.6382 11.1001 81.2377 10.8164C80.8372 10.5178 80.1518 10.2864 79.1814 10.1222L75.9698 9.58472C74.5989 9.36078 73.5515 8.8905 72.8276 8.17388C72.119 7.45727 71.7647 6.53164 71.7647 5.397C71.7647 4.42659 72.0189 3.58307 72.5272 2.86646C73.0509 2.14984 73.7826 1.60492 74.7221 1.23168C75.6771 0.843515 76.8093 0.649432 78.1185 0.649432C79.3046 0.649432 80.4829 0.843515 81.6536 1.23168C82.8396 1.61985 83.887 2.15731 84.7958 2.84406L82.9936 5.26264C81.2993 4.00856 79.5972 3.38153 77.8875 3.38153C77.2868 3.38153 76.7631 3.45617 76.3164 3.60547C75.8697 3.75476 75.5231 3.96377 75.2767 4.2325C75.0456 4.4863 74.9301 4.79236 74.9301 5.15067C74.9301 5.62841 75.1072 6.00165 75.4615 6.27038C75.8158 6.52418 76.4088 6.71826 77.2406 6.85262L80.2904 7.3453C81.9077 7.5991 83.1169 8.09924 83.9178 8.84571C84.7188 9.57725 85.1193 10.5477 85.1193 11.757C85.1193 12.7722 84.842 13.6605 84.2875 14.4219C83.733 15.1683 82.9397 15.7506 81.9077 16.1686C80.8911 16.5717 79.6897 16.7733 78.3034 16.7733Z" fill="white"/>
<path d="M91.2999 16.7509C90.4374 16.7509 89.6749 16.6016 89.0126 16.303C88.3503 15.9895 87.8342 15.564 87.4646 15.0265C87.0949 14.489 86.9101 13.8695 86.9101 13.1678C86.9101 12.0481 87.3413 11.1822 88.2039 10.5701C89.0819 9.94303 90.2833 9.62951 91.8083 9.62951C92.8557 9.62951 93.8415 9.78627 94.7657 10.0998V9.24881C94.7657 8.57698 94.55 8.06938 94.1187 7.726C93.6874 7.38262 93.0559 7.21093 92.2241 7.21093C91.7158 7.21093 91.169 7.29304 90.5837 7.45727C89.9984 7.60656 89.3206 7.84543 88.5505 8.17388L87.3953 5.91207C88.3503 5.49404 89.259 5.18052 90.1216 4.97151C90.9996 4.7625 91.8776 4.65799 92.7555 4.65799C94.3729 4.65799 95.6282 5.03869 96.5216 5.8001C97.4304 6.54657 97.8848 7.60656 97.8848 8.98007V16.5493H94.7657V15.7207C94.2728 16.079 93.7413 16.3403 93.1714 16.5045C92.6015 16.6688 91.9777 16.7509 91.2999 16.7509ZM89.9137 13.1006C89.9137 13.5485 90.1139 13.9068 90.5144 14.1755C90.9149 14.4293 91.4463 14.5562 92.1086 14.5562C92.6323 14.5562 93.1175 14.4965 93.5642 14.3771C94.0109 14.2427 94.4114 14.0486 94.7657 13.7948V12.0929C94.3806 11.9436 93.9801 11.8316 93.5642 11.757C93.1483 11.6823 92.7016 11.645 92.2241 11.645C91.5002 11.645 90.9303 11.7793 90.5144 12.0481C90.1139 12.3019 89.9137 12.6527 89.9137 13.1006Z" fill="white"/>
<path d="M105.88 16.7285C104.54 16.7285 103.523 16.4373 102.83 15.8551C102.152 15.2579 101.813 14.392 101.813 13.2574V7.43488H99.3413V4.88194H101.813V1.90351L104.979 1.20929V4.88194H108.421V7.43488H104.979V12.6303C104.979 13.1678 105.102 13.556 105.349 13.7948C105.595 14.0188 106.026 14.1307 106.642 14.1307C106.95 14.1307 107.228 14.1158 107.474 14.086C107.736 14.0412 108.021 13.9665 108.329 13.862V16.3926C108.006 16.4971 107.597 16.5792 107.104 16.6389C106.627 16.6986 106.219 16.7285 105.88 16.7285Z" fill="white"/>
<path d="M115.953 16.7733C114.751 16.7733 113.658 16.5045 112.672 15.9671C111.702 15.4296 110.931 14.7055 110.362 13.7948C109.792 12.8841 109.507 11.8615 109.507 10.7268C109.507 9.59218 109.776 8.56951 110.315 7.65882C110.87 6.74812 111.617 6.02404 112.556 5.48658C113.496 4.94912 114.543 4.68039 115.699 4.68039C116.854 4.68039 117.878 4.95658 118.772 5.50897C119.665 6.06136 120.366 6.80784 120.874 7.74839C121.398 8.68895 121.66 9.75641 121.66 10.9508V11.757H112.741C112.88 12.2198 113.103 12.6378 113.411 13.011C113.735 13.3843 114.128 13.6754 114.59 13.8844C115.067 14.0934 115.575 14.1979 116.115 14.1979C116.654 14.1979 117.147 14.1158 117.593 13.9516C118.055 13.7874 118.448 13.556 118.772 13.2574L120.851 15.0937C120.112 15.6759 119.349 16.1014 118.564 16.3702C117.794 16.6389 116.923 16.7733 115.953 16.7733ZM112.695 9.56232H118.541C118.433 9.09951 118.233 8.69641 117.94 8.35304C117.663 7.99473 117.324 7.71853 116.923 7.52445C116.538 7.31544 116.107 7.21093 115.629 7.21093C115.136 7.21093 114.69 7.30797 114.289 7.50206C113.889 7.69614 113.55 7.97234 113.273 8.33064C113.011 8.67402 112.818 9.08458 112.695 9.56232Z" fill="white"/>
<path d="M123.83 16.5493V0.873373L126.995 0.358307V16.5493H123.83Z" fill="white"/>
<path d="M129.702 16.5493V0.873373L132.867 0.358307V16.5493H129.702Z" fill="white"/>
<path d="M135.574 16.5493V4.88194H138.739V16.5493H135.574ZM137.145 3.4935C136.652 3.4935 136.228 3.32181 135.874 2.97843C135.52 2.63505 135.343 2.22449 135.343 1.74675C135.343 1.25408 135.52 0.843515 135.874 0.515067C136.228 0.171689 136.652 0 137.145 0C137.653 0 138.077 0.171689 138.416 0.515067C138.77 0.843515 138.947 1.25408 138.947 1.74675C138.947 2.22449 138.77 2.63505 138.416 2.97843C138.077 3.32181 137.653 3.4935 137.145 3.4935Z" fill="white"/>
<path d="M147.152 16.7285C145.812 16.7285 144.796 16.4373 144.103 15.8551C143.425 15.2579 143.086 14.392 143.086 13.2574V7.43488H140.614V4.88194H143.086V1.90351L146.251 1.20929V4.88194H149.694V7.43488H146.251V12.6303C146.251 13.1678 146.375 13.556 146.621 13.7948C146.868 14.0188 147.299 14.1307 147.915 14.1307C148.223 14.1307 148.5 14.1158 148.747 14.086C149.009 14.0412 149.294 13.9665 149.602 13.862V16.3926C149.278 16.4971 148.87 16.5792 148.377 16.6389C147.9 16.6986 147.491 16.7285 147.152 16.7285Z" fill="white"/>
<path d="M157.225 16.7733C156.024 16.7733 154.93 16.5045 153.945 15.9671C152.974 15.4296 152.204 14.7055 151.634 13.7948C151.064 12.8841 150.779 11.8615 150.779 10.7268C150.779 9.59218 151.049 8.56951 151.588 7.65882C152.142 6.74812 152.889 6.02404 153.829 5.48658C154.769 4.94912 155.816 4.68039 156.971 4.68039C158.126 4.68039 159.151 4.95658 160.044 5.50897C160.938 6.06136 161.638 6.80784 162.147 7.74839C162.67 8.68895 162.932 9.75641 162.932 10.9508V11.757H154.014C154.152 12.2198 154.376 12.6378 154.684 13.011C155.007 13.3843 155.4 13.6754 155.862 13.8844C156.34 14.0934 156.848 14.1979 157.387 14.1979C157.926 14.1979 158.419 14.1158 158.866 13.9516C159.328 13.7874 159.721 13.556 160.044 13.2574L162.124 15.0937C161.384 15.6759 160.622 16.1014 159.836 16.3702C159.066 16.6389 158.196 16.7733 157.225 16.7733ZM153.968 9.56232H159.813C159.705 9.09951 159.505 8.69641 159.212 8.35304C158.935 7.99473 158.596 7.71853 158.196 7.52445C157.811 7.31544 157.379 7.21093 156.902 7.21093C156.409 7.21093 155.962 7.30797 155.562 7.50206C155.161 7.69614 154.823 7.97234 154.545 8.33064C154.283 8.67402 154.091 9.08458 153.968 9.56232Z" fill="white"/>
<path d="M173.212 16.7957C172.042 16.7957 170.948 16.5941 169.932 16.191C168.93 15.773 168.045 15.1982 167.275 14.4667C166.52 13.7202 165.927 12.8617 165.495 11.8913C165.08 10.906 164.872 9.84598 164.872 8.71134C164.872 7.5767 165.08 6.52418 165.495 5.55376C165.927 4.56842 166.52 3.70997 167.275 2.97843C168.045 2.23196 168.93 1.65717 169.932 1.25408C170.948 0.83605 172.042 0.627038 173.212 0.627038C174.368 0.627038 175.446 0.83605 176.447 1.25408C177.464 1.65717 178.349 2.23196 179.104 2.97843C179.874 3.70997 180.467 4.56842 180.883 5.55376C181.314 6.52418 181.53 7.5767 181.53 8.71134C181.53 9.84598 181.314 10.906 180.883 11.8913C180.467 12.8617 179.874 13.7202 179.104 14.4667C178.349 15.1982 177.464 15.773 176.447 16.191C175.446 16.5941 174.368 16.7957 173.212 16.7957ZM173.212 15.2057C174.137 15.2057 174.992 15.0414 175.777 14.713C176.563 14.3845 177.248 13.9292 177.833 13.3469C178.434 12.7498 178.896 12.0555 179.22 11.2643C179.559 10.473 179.728 9.62204 179.728 8.71134C179.728 7.78572 179.559 6.93474 179.22 6.15841C178.896 5.36714 178.434 4.68039 177.833 4.09814C177.248 3.50096 176.563 3.03815 175.777 2.7097C174.992 2.38125 174.137 2.21703 173.212 2.21703C172.288 2.21703 171.426 2.38125 170.625 2.7097C169.839 3.03815 169.146 3.50096 168.545 4.09814C167.96 4.68039 167.498 5.36714 167.159 6.15841C166.836 6.93474 166.674 7.77825 166.674 8.68895C166.674 9.61458 166.836 10.473 167.159 11.2643C167.498 12.0555 167.96 12.7498 168.545 13.3469C169.146 13.9292 169.839 14.3845 170.625 14.713C171.426 15.0414 172.288 15.2057 173.212 15.2057Z" fill="white"/>
<path d="M184.224 21.1177V5.32982H185.911V6.53911C186.912 5.61348 188.159 5.15067 189.654 5.15067C190.747 5.15067 191.733 5.41193 192.611 5.93446C193.489 6.44206 194.182 7.12882 194.69 7.99473C195.214 8.86064 195.476 9.83852 195.476 10.9284C195.476 12.0182 195.214 13.0036 194.69 13.8844C194.182 14.7503 193.489 15.4445 192.611 15.9671C191.733 16.4747 190.74 16.7285 189.63 16.7285C188.953 16.7285 188.298 16.6165 187.667 16.3926C187.035 16.1686 186.457 15.8476 185.934 15.4296V21.1177H184.224ZM189.492 15.2728C190.308 15.2728 191.04 15.0862 191.687 14.713C192.334 14.3248 192.842 13.8098 193.212 13.1678C193.597 12.5109 193.789 11.7719 193.789 10.9508C193.789 10.1296 193.597 9.39063 193.212 8.73374C192.842 8.07684 192.334 7.56178 191.687 7.18854C191.04 6.80037 190.308 6.60629 189.492 6.60629C188.768 6.60629 188.09 6.74812 187.459 7.03178C186.843 7.30051 186.334 7.68121 185.934 8.17388V13.7276C186.334 14.2054 186.85 14.5861 187.482 14.8697C188.113 15.1385 188.783 15.2728 189.492 15.2728Z" fill="white"/>
<path d="M201.823 16.7733C200.821 16.7733 200.051 16.5418 199.512 16.079C198.973 15.6162 198.703 14.9444 198.703 14.0636V6.74065H196.208V5.32982H198.703V2.48576L200.39 2.06027V5.32982H203.879V6.74065H200.39V13.6381C200.39 14.2352 200.529 14.6682 200.806 14.9369C201.083 15.1907 201.538 15.3176 202.169 15.3176C202.493 15.3176 202.778 15.2952 203.024 15.2505C203.286 15.2057 203.563 15.131 203.856 15.0265V16.4821C203.563 16.5866 203.232 16.6613 202.862 16.7061C202.508 16.7509 202.161 16.7733 201.823 16.7733Z" fill="white"/>
<path d="M205.941 16.5493V5.32982H207.65V16.5493H205.941ZM206.795 3.17998C206.487 3.17998 206.218 3.06801 205.987 2.84406C205.756 2.62012 205.64 2.35886 205.64 2.06027C205.64 1.74675 205.756 1.48548 205.987 1.27647C206.218 1.05253 206.487 0.940556 206.795 0.940556C207.119 0.940556 207.388 1.05253 207.604 1.27647C207.835 1.48548 207.951 1.74675 207.951 2.06027C207.951 2.35886 207.835 2.62012 207.604 2.84406C207.388 3.06801 207.119 3.17998 206.795 3.17998Z" fill="white"/>
<path d="M216.18 16.7733C215.087 16.7733 214.086 16.5195 213.177 16.0119C212.283 15.4893 211.575 14.7876 211.051 13.9068C210.528 13.026 210.266 12.0406 210.266 10.9508C210.266 9.86091 210.528 8.87557 211.051 7.99473C211.575 7.11389 212.283 6.41967 213.177 5.91207C214.086 5.38954 215.087 5.12827 216.18 5.12827C217.29 5.12827 218.291 5.38954 219.184 5.91207C220.077 6.41967 220.786 7.11389 221.31 7.99473C221.833 8.87557 222.095 9.86091 222.095 10.9508C222.095 12.0406 221.833 13.026 221.31 13.9068C220.786 14.7876 220.077 15.4893 219.184 16.0119C218.291 16.5195 217.29 16.7733 216.18 16.7733ZM216.18 15.2952C216.966 15.2952 217.675 15.1012 218.306 14.713C218.953 14.3248 219.461 13.8023 219.831 13.1454C220.216 12.4885 220.409 11.757 220.409 10.9508C220.409 10.1296 220.216 9.3981 219.831 8.75613C219.461 8.09924 218.953 7.5767 218.306 7.18854C217.675 6.80037 216.966 6.60629 216.18 6.60629C215.395 6.60629 214.679 6.80037 214.032 7.18854C213.4 7.5767 212.892 8.09924 212.507 8.75613C212.137 9.3981 211.952 10.1296 211.952 10.9508C211.952 11.757 212.137 12.4885 212.507 13.1454C212.892 13.8023 213.4 14.3248 214.032 14.713C214.679 15.1012 215.395 15.2952 216.18 15.2952Z" fill="white"/>
<path d="M224.701 16.5493V5.32982H226.411V6.65108C227.32 5.62094 228.537 5.10588 230.062 5.10588C230.94 5.10588 231.71 5.2925 232.372 5.66573C233.05 6.02404 233.574 6.53164 233.943 7.18854C234.328 7.83051 234.521 8.58444 234.521 9.45035V16.5493H232.834V9.78627C232.834 8.78599 232.542 8.00219 231.956 7.43488C231.386 6.85263 230.601 6.5615 229.6 6.5615C228.906 6.5615 228.29 6.7108 227.751 7.00939C227.212 7.30797 226.765 7.73346 226.411 8.28585V16.5493H224.701Z" fill="white"/>
<path d="M241.31 16.7733C240.355 16.7733 239.454 16.624 238.606 16.3254C237.775 16.0119 237.051 15.5789 236.435 15.0265L237.474 13.9516C238.013 14.4293 238.606 14.8026 239.253 15.0713C239.9 15.3251 240.563 15.452 241.24 15.452C242.165 15.452 242.919 15.2654 243.505 14.8921C244.09 14.5189 244.383 14.0337 244.383 13.4365C244.383 12.9438 244.206 12.5631 243.851 12.2944C243.512 12.0108 242.973 11.8167 242.234 11.7122L240.224 11.4434C239.069 11.2792 238.206 10.9433 237.636 10.4357C237.082 9.9281 236.804 9.24134 236.804 8.37543C236.804 7.74839 236.989 7.18854 237.359 6.69587C237.729 6.20319 238.237 5.81503 238.884 5.53137C239.546 5.24771 240.301 5.10588 241.148 5.10588C241.995 5.10588 242.788 5.22531 243.528 5.46418C244.267 5.70306 244.991 6.07629 245.7 6.5839L244.799 7.7036C244.152 7.27065 243.52 6.95713 242.904 6.76305C242.303 6.55404 241.687 6.44953 241.056 6.44953C240.255 6.44953 239.608 6.62122 239.115 6.9646C238.622 7.30797 238.375 7.75586 238.375 8.30825C238.375 8.81585 238.545 9.20402 238.884 9.47275C239.223 9.72655 239.769 9.9057 240.524 10.0102L242.534 10.2789C243.69 10.4282 244.552 10.7567 245.122 11.2643C245.707 11.7719 246 12.4661 246 13.3469C246 13.9889 245.792 14.5712 245.376 15.0937C244.96 15.6162 244.398 16.0268 243.69 16.3254C242.996 16.624 242.203 16.7733 241.31 16.7733Z" fill="white"/>
<path fill-rule="evenodd" clip-rule="evenodd" d="M15.339 2.17977C7.47811 2.17977 1.15524 8.3858 1.15524 15.9273C1.15524 16.2365 0.896627 16.4872 0.577618 16.4872C0.258608 16.4872 0 16.2365 0 15.9273C0 7.77157 6.8358 1.06006 15.339 1.06006C15.658 1.06006 15.9166 1.31071 15.9166 1.61991C15.9166 1.92911 15.658 2.17977 15.339 2.17977Z" fill="white"/>
<path fill-rule="evenodd" clip-rule="evenodd" d="M15.0663 5.91195C9.34254 5.91195 4.73336 10.3794 4.73336 15.9271C4.73336 16.2363 4.47475 16.487 4.15574 16.487C3.83673 16.487 3.57812 16.2363 3.57812 15.9271C3.57812 9.76099 8.70452 4.79224 15.0663 4.79224C15.3853 4.79224 15.6439 5.04289 15.6439 5.35209C15.6439 5.66129 15.3853 5.91195 15.0663 5.91195Z" fill="white"/>
<path fill-rule="evenodd" clip-rule="evenodd" d="M7.38086 15.9277C7.38086 11.6716 10.948 8.21411 15.3391 8.21411C15.6582 8.21411 15.9168 8.46477 15.9168 8.77397V15.9277C15.9168 16.2369 15.6582 16.4875 15.3391 16.4875H7.95848C7.63947 16.4875 7.38086 16.2369 7.38086 15.9277ZM8.56035 15.3678H14.7615V9.35733C11.4685 9.62655 8.83811 12.1761 8.56035 15.3678Z" fill="white"/>
<path d="M16.9918 14.6833C16.9918 16.0657 15.8508 17.1716 14.4246 17.1716C12.9984 17.1716 11.8574 16.0657 11.8574 14.6833C11.8574 13.8539 12.2377 13.1166 12.9033 12.6559C13.3787 12.3794 13.8541 12.1951 14.4246 12.1951C15.8508 12.1951 16.9918 13.301 16.9918 14.6833Z" fill="white"/>
</svg>
