<svg width="1440" height="446" viewBox="0 0 1440 446" fill="none" xmlns="http://www.w3.org/2000/svg">
<rect x="1440" y="446" width="1440" height="446" fill="none"/>
<circle cx="-2.5" cy="132.5" r="98" stroke="#BDE3FF" stroke-width="3"/>
<path d="M70.4736 133.509C70.4736 173.692 37.7195 206.281 -2.70187 206.281C-43.1232 206.281 -75.8773 173.692 -75.8773 133.509C-75.8773 93.3262 -43.1232 60.7375 -2.70187 60.7375C37.7195 60.7375 70.4736 93.3262 70.4736 133.509Z" stroke="#BDE3FF" stroke-opacity="0.6" stroke-width="3"/>
<path d="M47.8692 132.702C47.8692 160.174 25.4196 182.465 -2.29818 182.465C-30.0159 182.465 -52.4655 160.174 -52.4655 132.702C-52.4655 105.229 -30.0159 82.938 -2.29818 82.938C25.4196 82.938 47.8692 105.229 47.8692 132.702Z" stroke="#BDE3FF" stroke-opacity="0.2" stroke-width="3"/>
<circle cx="1439.5" cy="134.5" r="98" stroke="#BDE3FF" stroke-width="3"/>
<path d="M1512.47 135.509C1512.47 175.692 1479.72 208.281 1439.3 208.281C1398.88 208.281 1366.12 175.692 1366.12 135.509C1366.12 95.3262 1398.88 62.7375 1439.3 62.7375C1479.72 62.7375 1512.47 95.3262 1512.47 135.509Z" stroke="#BDE3FF" stroke-opacity="0.6" stroke-width="3"/>
<path d="M1489.87 134.702C1489.87 162.174 1467.42 184.465 1439.7 184.465C1411.98 184.465 1389.53 162.174 1389.53 134.702C1389.53 107.229 1411.98 84.938 1439.7 84.938C1467.42 84.938 1489.87 107.229 1489.87 134.702Z" stroke="#BDE3FF" stroke-opacity="0.2" stroke-width="3"/>
</svg>
