<svg width="1440" height="742" viewBox="0 0 1440 742" fill="none" xmlns="http://www.w3.org/2000/svg">
<g clip-path="url(#clip0_1317_4546)">
<circle cx="1491" cy="515" r="205.5" stroke="#BDE3FF" stroke-width="3"/>
<path d="M1644.44 517.1C1644.44 601.6 1575.56 670.115 1490.58 670.115C1405.6 670.115 1336.73 601.6 1336.73 517.1C1336.73 432.6 1405.6 364.085 1490.58 364.085C1575.56 364.085 1644.44 432.6 1644.44 517.1Z" stroke="#BDE3FF" stroke-opacity="0.6" stroke-width="3"/>
<path d="M1597.41 515.42C1597.41 573.481 1549.97 620.569 1491.42 620.569C1432.87 620.569 1385.43 573.481 1385.43 515.42C1385.43 457.358 1432.87 410.271 1491.42 410.271C1549.97 410.271 1597.41 457.358 1597.41 515.42Z" stroke="#BDE3FF" stroke-opacity="0.2" stroke-width="3"/>
<circle cx="-25.5" cy="125.5" r="98" stroke="#BDE3FF" stroke-width="3"/>
<path d="M47.474 126.509C47.474 166.692 14.7199 199.281 -25.7015 199.281C-66.1229 199.281 -98.877 166.692 -98.877 126.509C-98.877 86.326 -66.1229 53.7373 -25.7015 53.7373C14.7199 53.7373 47.474 86.326 47.474 126.509Z" stroke="#BDE3FF" stroke-opacity="0.6" stroke-width="3"/>
<path d="M24.8698 125.701C24.8698 153.174 2.42027 175.465 -25.2975 175.465C-53.0153 175.465 -75.4648 153.174 -75.4648 125.701C-75.4648 98.2285 -53.0153 75.9375 -25.2975 75.9375C2.42027 75.9375 24.8698 98.2285 24.8698 125.701Z" stroke="#BDE3FF" stroke-opacity="0.2" stroke-width="3"/>
</g>
<defs>
<clipPath id="clip0_1317_4546">
<rect width="1440" height="742" fill="white"/>
</clipPath>
</defs>
</svg>
