<svg width="1440" height="360" viewBox="0 0 1440 360" fill="none" xmlns="http://www.w3.org/2000/svg">
<circle cx="-33.5" cy="99.5" r="98" stroke="#BDE3FF" stroke-width="3"/>
<path d="M39.474 100.509C39.474 140.692 6.71986 173.281 -33.7015 173.281C-74.1229 173.281 -106.877 140.692 -106.877 100.509C-106.877 60.3262 -74.1229 27.7375 -33.7015 27.7375C6.71986 27.7375 39.474 60.3262 39.474 100.509Z" stroke="#BDE3FF" stroke-opacity="0.6" stroke-width="3"/>
<path d="M16.8698 99.7017C16.8698 127.174 -5.57973 149.465 -33.2975 149.465C-61.0153 149.465 -83.4648 127.174 -83.4648 99.7017C-83.4648 72.229 -61.0153 49.938 -33.2975 49.938C-5.57973 49.938 16.8698 72.229 16.8698 99.7017Z" stroke="#BDE3FF" stroke-opacity="0.2" stroke-width="3"/>
<circle cx="1432.5" cy="279.5" r="79" stroke="#BDE3FF" stroke-width="3"/>
<path d="M1491.25 280.317C1491.25 312.667 1464.88 338.906 1432.34 338.906C1399.79 338.906 1373.42 312.667 1373.42 280.317C1373.42 247.966 1399.79 221.727 1432.34 221.727C1464.88 221.727 1491.25 247.966 1491.25 280.317Z" stroke="#BDE3FF" stroke-opacity="0.6" stroke-width="3"/>
<path d="M1472.96 279.663C1472.96 301.729 1454.93 319.638 1432.66 319.638C1410.39 319.638 1392.36 301.729 1392.36 279.663C1392.36 257.597 1410.39 239.688 1432.66 239.688C1454.93 239.688 1472.96 257.597 1472.96 279.663Z" stroke="#BDE3FF" stroke-opacity="0.2" stroke-width="3"/>
</svg>
