<svg width="311" height="348" viewBox="0 0 311 348" fill="none" xmlns="http://www.w3.org/2000/svg">
<path fill-rule="evenodd" clip-rule="evenodd" d="M155.5 55.9006C80.372 55.9006 19.4689 116.804 19.4689 191.931C19.4689 267.059 80.372 327.962 155.5 327.962C230.628 327.962 291.531 267.059 291.531 191.931C291.531 116.804 230.628 55.9006 155.5 55.9006ZM15.9941 191.931C15.9941 114.885 78.453 52.4258 155.5 52.4258C232.547 52.4258 295.006 114.885 295.006 191.931C295.006 268.978 232.547 331.437 155.5 331.437C78.453 331.437 15.9941 268.978 15.9941 191.931Z" fill="#79BCED"/>
<path fill-rule="evenodd" clip-rule="evenodd" d="M155.5 40.1447C71.7588 40.1447 3.87319 108.03 3.87319 191.771C3.87319 275.513 71.7588 343.398 155.5 343.398C239.241 343.398 307.127 275.513 307.127 191.771C307.127 108.03 239.241 40.1447 155.5 40.1447ZM0 191.771C0 105.891 69.6197 36.2715 155.5 36.2715C241.38 36.2715 311 105.891 311 191.771C311 277.652 241.38 347.271 155.5 347.271C69.6197 347.271 0 277.652 0 191.771Z" fill="#0878C9"/>
<path fill-rule="evenodd" clip-rule="evenodd" d="M155.5 72.5623C90.0649 72.5623 37.0194 125.608 37.0194 191.043C37.0194 256.478 90.0649 309.523 155.5 309.523C220.935 309.523 273.98 256.478 273.98 191.043C273.98 125.608 220.935 72.5623 155.5 72.5623ZM33.7656 191.043C33.7656 123.811 88.2679 69.3086 155.5 69.3086C222.732 69.3086 277.234 123.811 277.234 191.043C277.234 258.275 222.732 312.777 155.5 312.777C88.2679 312.777 33.7656 258.275 33.7656 191.043Z" fill="#BDE3FF"/>
<path d="M102.753 205.624L164.796 144.364C164.796 144.364 176.148 171.177 153.053 194.859C129.958 218.542 102.753 205.624 102.753 205.624Z" fill="#BCEDFF"/>
<path fill-rule="evenodd" clip-rule="evenodd" d="M165.774 135.35C166.244 135.35 166.695 135.536 167.028 135.869C174.485 143.326 176.886 154.186 175.009 165.498C173.132 176.814 166.966 188.737 157.046 198.657L157.04 198.664C147.026 208.577 135.106 214.743 123.814 216.62C112.524 218.498 101.713 216.095 94.2574 208.639C93.5652 207.947 93.5652 206.825 94.2574 206.132L164.521 135.869C164.854 135.536 165.304 135.35 165.774 135.35ZM98.0633 207.34C104.453 212.855 113.433 214.753 123.232 213.124C133.714 211.381 144.985 205.608 154.543 196.147C163.997 186.692 169.769 175.424 171.512 164.918C173.142 155.092 171.242 146.069 165.728 139.675L98.0633 207.34Z" fill="#0139A4"/>
<path d="M150.509 210.126L168.32 192.119C171.647 188.792 176.931 188.792 180.259 192.119L202.571 214.432C205.898 217.759 205.898 223.043 202.571 226.371L184.76 244.181C181.433 247.508 176.149 247.508 172.821 244.181L150.509 222.065C147.182 218.737 147.182 213.453 150.509 210.126Z" fill="white"/>
<path fill-rule="evenodd" clip-rule="evenodd" d="M169.575 193.37C169.574 193.371 169.573 193.372 169.572 193.373L151.761 211.379C149.127 214.013 149.126 218.174 151.759 220.809C151.76 220.81 151.761 220.811 151.761 220.811L174.074 242.928C176.709 245.563 180.871 245.563 183.506 242.928L201.316 225.117C203.952 222.482 203.952 218.32 201.316 215.685L179.004 193.373C176.37 190.739 172.21 190.738 169.575 193.37ZM167.065 190.866C171.085 186.847 177.491 186.847 181.511 190.866L203.823 213.178C207.843 217.198 207.843 223.604 203.823 227.624L186.013 245.434C181.994 249.453 175.589 249.454 171.57 245.437C171.569 245.436 171.568 245.435 171.567 245.434L149.26 223.324L149.255 223.318C145.237 219.3 145.235 212.896 149.251 208.876C149.252 208.875 149.254 208.874 149.255 208.872L167.059 190.873L167.065 190.866Z" fill="#0139A4"/>
<path d="M134.851 168.046L109.015 151.605C108.037 151.018 106.863 152.193 107.645 153.171L125.065 177.832L134.851 168.046Z" fill="#0139A4"/>
<path fill-rule="evenodd" clip-rule="evenodd" d="M105.884 148.289C104.917 148.289 104.134 149.073 104.134 150.04C104.134 151.006 104.917 151.79 105.884 151.79C106.851 151.79 107.635 151.006 107.635 150.04C107.635 149.073 106.851 148.289 105.884 148.289ZM100.589 150.04C100.589 147.115 102.96 144.744 105.884 144.744C108.809 144.744 111.18 147.115 111.18 150.04C111.18 152.964 108.809 155.335 105.884 155.335C102.96 155.335 100.589 152.964 100.589 150.04Z" fill="#0139A4"/>
<path fill-rule="evenodd" clip-rule="evenodd" d="M153.121 227.181C151.501 225.426 148.554 225.351 146.673 227.232L105.963 267.942C104.082 269.823 104.157 272.77 105.912 274.39C105.93 274.406 105.947 274.422 105.963 274.439L120.447 288.922C120.463 288.939 120.48 288.956 120.496 288.973C122.116 290.728 125.062 290.803 126.943 288.922L167.653 248.212C167.67 248.196 167.687 248.179 167.704 248.163C169.459 246.543 169.534 243.597 167.653 241.716L153.17 227.232C153.153 227.216 153.137 227.199 153.121 227.181ZM155.7 224.749C152.619 221.444 147.365 221.527 144.167 224.726L103.457 265.436C100.258 268.634 100.175 273.888 103.48 276.969L117.917 291.405C120.997 294.711 126.251 294.627 129.45 291.429L170.136 250.742C173.442 247.661 173.358 242.408 170.16 239.209L155.7 224.749Z" fill="#0139A4"/>
<path fill-rule="evenodd" clip-rule="evenodd" d="M233.05 147.601C231.157 145.876 228.346 145.951 226.723 147.574L185.648 188.649C183.923 190.542 183.998 193.353 185.621 194.976L200.273 209.628C202.167 211.354 204.978 211.278 206.601 209.655L247.675 168.581C249.401 166.687 249.326 163.876 247.702 162.253L233.05 147.601ZM224.216 145.067C227.283 142 232.284 142.069 235.479 145.018C235.496 145.034 235.513 145.051 235.53 145.067L250.209 159.747C253.276 162.814 253.207 167.815 250.258 171.009C250.242 171.027 250.226 171.044 250.209 171.061L209.108 212.162C206.041 215.229 201.04 215.16 197.845 212.211C197.827 212.195 197.81 212.179 197.794 212.162L183.115 197.483C180.047 194.416 180.116 189.415 183.066 186.22C183.082 186.203 183.098 186.186 183.115 186.169L224.216 145.067Z" fill="#0139A4"/>
<path d="M188.283 241.441L200.614 229.111L202.375 230.872C204.137 232.634 204.137 235.374 202.375 237.135L196.308 243.202C194.546 244.964 191.806 244.964 190.045 243.202L188.283 241.441Z" fill="#0139A4"/>
<path fill-rule="evenodd" clip-rule="evenodd" d="M163.114 232.163C163.806 232.855 163.806 233.978 163.114 234.67L113.401 284.383C112.709 285.075 111.586 285.075 110.894 284.383C110.202 283.691 110.202 282.568 110.894 281.876L160.607 232.163C161.299 231.471 162.422 231.471 163.114 232.163Z" fill="#0139A4"/>
<path fill-rule="evenodd" clip-rule="evenodd" d="M242.77 152.503C243.463 153.193 243.465 154.316 242.774 155.009L193.061 204.918C192.371 205.611 191.248 205.614 190.555 204.923C189.861 204.232 189.859 203.11 190.55 202.416L240.263 152.507C240.954 151.814 242.076 151.812 242.77 152.503Z" fill="#0139A4"/>
<path fill-rule="evenodd" clip-rule="evenodd" d="M216.974 152.309C217.666 151.617 218.789 151.617 219.481 152.309L242.772 175.6C243.464 176.292 243.464 177.414 242.772 178.107C242.079 178.799 240.957 178.799 240.265 178.107L216.974 154.816C216.282 154.124 216.282 153.001 216.974 152.309Z" fill="#0139A4"/>
<path fill-rule="evenodd" clip-rule="evenodd" d="M204.644 166.792C205.336 166.1 206.459 166.1 207.151 166.792L229.267 188.909C229.959 189.601 229.959 190.723 229.267 191.416C228.575 192.108 227.453 192.108 226.761 191.416L204.644 169.299C203.952 168.607 203.952 167.485 204.644 166.792Z" fill="#0139A4"/>
<path fill-rule="evenodd" clip-rule="evenodd" d="M190.362 178.922C191.057 178.233 192.18 178.237 192.869 178.932L215.964 202.223C216.653 202.918 216.648 204.04 215.953 204.73C215.258 205.419 214.136 205.414 213.447 204.719L190.352 181.428C189.662 180.733 189.667 179.611 190.362 178.922Z" fill="#0139A4"/>
<path fill-rule="evenodd" clip-rule="evenodd" d="M137.316 231.967C138.008 231.275 139.13 231.275 139.823 231.967L163.113 255.258C163.806 255.95 163.806 257.073 163.113 257.765C162.421 258.457 161.299 258.457 160.607 257.765L137.316 234.474C136.624 233.782 136.624 232.66 137.316 231.967Z" fill="#0139A4"/>
<path fill-rule="evenodd" clip-rule="evenodd" d="M123.812 245.081C124.504 244.388 125.627 244.388 126.319 245.081L149.609 268.371C150.302 269.064 150.302 270.186 149.609 270.878C148.917 271.57 147.795 271.57 147.103 270.878L123.812 247.587C123.12 246.895 123.12 245.773 123.812 245.081Z" fill="#0139A4"/>
<path fill-rule="evenodd" clip-rule="evenodd" d="M110.698 258.586C111.39 257.893 112.512 257.893 113.204 258.586L136.495 281.876C137.187 282.568 137.187 283.691 136.495 284.383C135.803 285.075 134.681 285.075 133.989 284.383L110.698 261.092C110.006 260.4 110.006 259.278 110.698 258.586Z" fill="#0139A4"/>
<path fill-rule="evenodd" clip-rule="evenodd" d="M93.1514 148.865C93.1514 142.406 98.4465 137.111 104.906 137.111C105.884 137.111 106.678 137.905 106.678 138.884C106.678 139.862 105.884 140.656 104.906 140.656C100.404 140.656 96.6963 144.364 96.6963 148.865C96.6963 149.844 95.9027 150.638 94.9238 150.638C93.9449 150.638 93.1514 149.844 93.1514 148.865Z" fill="#0139A4"/>
<path fill-rule="evenodd" clip-rule="evenodd" d="M84.7354 151.41C84.7354 138.883 94.9235 128.695 107.45 128.695C108.429 128.695 109.222 129.489 109.222 130.468C109.222 131.446 108.429 132.24 107.45 132.24C96.8813 132.24 88.2802 140.841 88.2802 151.41C88.2802 152.389 87.4867 153.182 86.5078 153.182C85.5289 153.182 84.7354 152.389 84.7354 151.41Z" fill="#0139A4"/>
<path fill-rule="evenodd" clip-rule="evenodd" d="M75.3408 154.541C75.3408 134.969 91.2049 119.105 110.777 119.105C111.756 119.105 112.55 119.898 112.55 120.877C112.55 121.856 111.756 122.65 110.777 122.65C93.1626 122.65 78.8857 136.927 78.8857 154.541C78.8857 155.52 78.0922 156.314 77.1133 156.314C76.1344 156.314 75.3408 155.52 75.3408 154.541Z" fill="#0139A4"/>
<path opacity="0.3" d="M152.834 215.923L177.714 240.803L198.595 219.922L173.715 195.93L152.834 215.923Z" fill="#21C4FF"/>
<path d="M230.096 120.975C263.052 120.975 289.768 94.2512 289.768 61.2855C289.768 28.3199 263.052 1.59595 230.096 1.59595C197.14 1.59595 170.424 28.3199 170.424 61.2855C170.424 94.2512 197.14 120.975 230.096 120.975Z" fill="#F7FCFF"/>
<path d="M230.096 122.571C196.271 122.571 168.828 95.1203 168.828 61.2855C168.828 27.4508 196.271 0 230.096 0C263.921 0 291.363 27.4508 291.363 61.2855C291.363 95.1203 263.761 122.571 230.096 122.571ZM230.096 3.19196C198.026 3.19196 172.019 29.2064 172.019 61.2855C172.019 93.3647 198.026 119.379 230.096 119.379C262.166 119.379 288.172 93.3647 288.172 61.2855C288.172 29.2064 262.006 3.19196 230.096 3.19196Z" fill="#EE6328"/>
<path d="M262.142 53.7515C262.999 69.0887 253.025 82.0366 239.389 86.1214L231.752 101.15C230.973 102.615 228.869 102.615 228.09 101.15L220.142 85.9673C206.661 81.7284 197.233 69.0116 197.778 54.368C198.558 36.1022 214.687 21.9981 233.389 23.9249C248.895 25.5434 261.285 38.2601 262.142 53.7515Z" fill="#EE6328"/>
<path fill-rule="evenodd" clip-rule="evenodd" d="M233.285 24.9196C215.155 23.0521 199.534 36.7228 198.778 54.408C198.251 68.5872 207.379 80.9059 220.442 85.0134L220.836 85.1374L228.973 100.681C228.973 100.682 228.974 100.682 228.974 100.683C229.377 101.436 230.46 101.437 230.866 100.688L238.691 85.2865L239.102 85.1635C252.317 81.2049 261.974 68.6601 261.144 53.8073C260.314 38.8198 248.317 26.4887 233.285 24.9196ZM196.779 54.3255C197.583 35.4805 214.221 20.9448 233.491 22.9302L233.493 22.9304C249.474 24.5984 262.255 37.7011 263.14 53.6957C264.016 69.3623 253.934 82.6066 240.088 86.953L232.64 101.612L232.635 101.62C231.48 103.791 228.363 103.791 227.207 101.62L227.204 101.614L219.446 86.794C205.76 82.3012 196.222 69.2938 196.779 54.3309L196.779 54.3255Z" fill="#EE6328"/>
<path d="M230.038 81.3431C244.326 81.3431 255.908 69.8871 255.908 55.7554C255.908 41.6237 244.326 30.1677 230.038 30.1677C215.75 30.1677 204.168 41.6237 204.168 55.7554C204.168 69.8871 215.75 81.3431 230.038 81.3431Z" fill="white"/>
<path fill-rule="evenodd" clip-rule="evenodd" d="M230.428 64.1678C229.856 64.1678 229.414 64.6232 229.414 65.158C229.414 65.6929 229.856 66.1483 230.428 66.1483C231 66.1483 231.442 65.6929 231.442 65.158C231.442 64.6232 231 64.1678 230.428 64.1678ZM227.078 65.158C227.078 63.3092 228.59 61.8323 230.428 61.8323C232.265 61.8323 233.777 63.3092 233.777 65.158C233.777 67.0068 232.265 68.4838 230.428 68.4838C228.59 68.4838 227.078 67.0068 227.078 65.158Z" fill="#EE6328"/>
<path fill-rule="evenodd" clip-rule="evenodd" d="M230.585 58.4645C228.668 58.4645 226.344 59.0364 224.695 59.8167C224.112 60.0925 223.416 59.8435 223.14 59.2605C222.864 58.6775 223.113 57.9813 223.696 57.7055C225.631 56.7903 228.294 56.129 230.585 56.129C233.134 56.129 235.509 56.8025 237.618 57.9708C238.182 58.2833 238.387 58.994 238.074 59.5582C237.762 60.1223 237.051 60.3264 236.487 60.0139C234.7 59.0242 232.712 58.4645 230.585 58.4645Z" fill="#EE6328"/>
<path fill-rule="evenodd" clip-rule="evenodd" d="M230.585 51.9134C226.938 51.9134 222.445 52.9546 219.424 54.4848C218.849 54.7763 218.146 54.5462 217.855 53.9709C217.563 53.3955 217.793 52.6929 218.369 52.4014C221.738 50.6946 226.596 49.5779 230.585 49.5779C235.08 49.5779 239.328 50.7902 242.923 52.8105C243.485 53.1264 243.685 53.8384 243.369 54.4006C243.053 54.9628 242.341 55.1625 241.779 54.8465C238.517 53.0132 234.661 51.9134 230.585 51.9134Z" fill="#EE6328"/>
<path fill-rule="evenodd" clip-rule="evenodd" d="M230.585 44.9C225.377 44.9 219.169 46.3276 214.902 48.4747C214.326 48.7647 213.624 48.5326 213.334 47.9565C213.044 47.3804 213.276 46.6784 213.852 46.3885C218.468 44.0655 225.04 42.5645 230.585 42.5645C236.709 42.5645 242.523 44.1586 247.459 47.0397C248.016 47.3648 248.204 48.0799 247.879 48.6369C247.554 49.1939 246.839 49.3818 246.282 49.0567C241.711 46.3887 236.305 44.9 230.585 44.9Z" fill="#EE6328"/>
</svg>
